<svg width="329" height="136" viewBox="0 0 329 136" fill="none" xmlns="http://www.w3.org/2000/svg">
<path d="M17 40L20 43L30 33M29 41V48C29 48.5304 28.7893 49.0391 28.4142 49.4142C28.0391 49.7893 27.5304 50 27 50H13C12.4696 50 11.9609 49.7893 11.5858 49.4142C11.2107 49.0391 11 48.5304 11 48V34C11 33.4696 11.2107 32.9609 11.5858 32.5858C11.9609 32.2107 12.4696 32 13 32H24" stroke="#02170C" stroke-width="2.5" stroke-linecap="round" stroke-linejoin="round"/>
<path d="M49.4261 31H48.1932C48.1203 30.6454 47.9927 30.3338 47.8104 30.0653C47.6314 29.7969 47.4126 29.5715 47.1541 29.3892C46.8989 29.2036 46.6155 29.0644 46.304 28.9716C45.9924 28.8788 45.6676 28.8324 45.3295 28.8324C44.7131 28.8324 44.1546 28.9882 43.6541 29.2997C43.157 29.6113 42.7609 30.0703 42.4659 30.6768C42.1742 31.2834 42.0284 32.0275 42.0284 32.9091C42.0284 33.7907 42.1742 34.5348 42.4659 35.1413C42.7609 35.7479 43.157 36.2069 43.6541 36.5185C44.1546 36.83 44.7131 36.9858 45.3295 36.9858C45.6676 36.9858 45.9924 36.9394 46.304 36.8466C46.6155 36.7538 46.8989 36.6162 47.1541 36.4339C47.4126 36.2483 47.6314 36.0213 47.8104 35.7528C47.9927 35.4811 48.1203 35.1695 48.1932 34.8182H49.4261C49.3333 35.3385 49.1643 35.8042 48.919 36.2152C48.6738 36.6262 48.3688 36.9759 48.0043 37.2642C47.6397 37.5492 47.2304 37.7663 46.7763 37.9155C46.3255 38.0646 45.8433 38.1392 45.3295 38.1392C44.4612 38.1392 43.6889 37.9271 43.0128 37.5028C42.3366 37.0786 41.8047 36.4754 41.4169 35.6932C41.0291 34.911 40.8352 33.983 40.8352 32.9091C40.8352 31.8352 41.0291 30.9072 41.4169 30.125C41.8047 29.3428 42.3366 28.7396 43.0128 28.3153C43.6889 27.8911 44.4612 27.679 45.3295 27.679C45.8433 27.679 46.3255 27.7536 46.7763 27.9027C47.2304 28.0518 47.6397 28.2706 48.0043 28.5589C48.3688 28.844 48.6738 29.192 48.919 29.603C49.1643 30.0107 49.3333 30.4763 49.4261 31ZM53.8017 38.1591C53.1123 38.1591 52.5074 37.995 51.9871 37.6669C51.47 37.3388 51.0657 36.8797 50.774 36.2898C50.4856 35.6998 50.3415 35.0104 50.3415 34.2216C50.3415 33.4261 50.4856 32.7318 50.774 32.1385C51.0657 31.5452 51.47 31.0845 51.9871 30.7564C52.5074 30.4283 53.1123 30.2642 53.8017 30.2642C54.4911 30.2642 55.0943 30.4283 55.6113 30.7564C56.1317 31.0845 56.5361 31.5452 56.8244 32.1385C57.1161 32.7318 57.2619 33.4261 57.2619 34.2216C57.2619 35.0104 57.1161 35.6998 56.8244 36.2898C56.5361 36.8797 56.1317 37.3388 55.6113 37.6669C55.0943 37.995 54.4911 38.1591 53.8017 38.1591ZM53.8017 37.1051C54.3254 37.1051 54.7562 36.9709 55.0943 36.7024C55.4324 36.4339 55.6826 36.081 55.845 35.6435C56.0074 35.206 56.0886 34.732 56.0886 34.2216C56.0886 33.7112 56.0074 33.2356 55.845 32.7947C55.6826 32.3539 55.4324 31.9976 55.0943 31.7259C54.7562 31.4541 54.3254 31.3182 53.8017 31.3182C53.278 31.3182 52.8471 31.4541 52.5091 31.7259C52.171 31.9976 51.9208 32.3539 51.7584 32.7947C51.596 33.2356 51.5148 33.7112 51.5148 34.2216C51.5148 34.732 51.596 35.206 51.7584 35.6435C51.9208 36.081 52.171 36.4339 52.5091 36.7024C52.8471 36.9709 53.278 37.1051 53.8017 37.1051ZM58.4929 38V30.3636H59.6264V31.5568H59.7259C59.885 31.1491 60.1418 30.8326 60.4965 30.6072C60.8511 30.3786 61.277 30.2642 61.7742 30.2642C62.278 30.2642 62.6972 30.3786 63.032 30.6072C63.3701 30.8326 63.6336 31.1491 63.8225 31.5568H63.902C64.0976 31.1624 64.3909 30.8492 64.782 30.6172C65.1731 30.3819 65.6421 30.2642 66.1889 30.2642C66.8717 30.2642 67.4302 30.478 67.8644 30.9055C68.2986 31.3298 68.5157 31.991 68.5157 32.8892V38H67.3424V32.8892C67.3424 32.3258 67.1882 31.9231 66.88 31.6811C66.5718 31.4392 66.2088 31.3182 65.7912 31.3182C65.2543 31.3182 64.8383 31.4806 64.5434 31.8054C64.2484 32.1269 64.1009 32.5346 64.1009 33.0284V38H62.9077V32.7699C62.9077 32.3357 62.7668 31.986 62.4851 31.7209C62.2034 31.4524 61.8405 31.3182 61.3963 31.3182C61.0914 31.3182 60.8064 31.3994 60.5412 31.5618C60.2794 31.7242 60.0673 31.9496 59.9049 32.2379C59.7458 32.523 59.6662 32.8527 59.6662 33.2273V38H58.4929ZM70.1009 40.8636V30.3636H71.2344V31.5767H71.3736C71.4598 31.4441 71.5791 31.2751 71.7316 31.0696C71.8874 30.8608 72.1094 30.6752 72.3978 30.5128C72.6894 30.3471 73.0838 30.2642 73.581 30.2642C74.224 30.2642 74.7908 30.425 75.2813 30.7464C75.7718 31.0679 76.1546 31.5237 76.4297 32.1136C76.7048 32.7036 76.8424 33.3996 76.8424 34.2017C76.8424 35.0104 76.7048 35.7114 76.4297 36.3047C76.1546 36.8946 75.7735 37.352 75.2863 37.6768C74.799 37.9983 74.2373 38.1591 73.6009 38.1591C73.1104 38.1591 72.7176 38.0779 72.4226 37.9155C72.1276 37.7498 71.9006 37.5625 71.7415 37.3537C71.5824 37.1416 71.4598 36.9659 71.3736 36.8267H71.2742V40.8636H70.1009ZM71.2543 34.1818C71.2543 34.7585 71.3388 35.2673 71.5079 35.7081C71.6769 36.1456 71.9238 36.4886 72.2486 36.7372C72.5734 36.9825 72.9712 37.1051 73.4418 37.1051C73.9323 37.1051 74.3417 36.9759 74.6698 36.7173C75.0012 36.4555 75.2498 36.1042 75.4155 35.6634C75.5846 35.2192 75.6691 34.7254 75.6691 34.1818C75.6691 33.6449 75.5862 33.161 75.4205 32.7301C75.2581 32.2959 75.0112 31.9529 74.6797 31.701C74.3516 31.4458 73.939 31.3182 73.4418 31.3182C72.9645 31.3182 72.5635 31.4392 72.2387 31.6811C71.9139 31.9197 71.6686 32.2545 71.5029 32.6854C71.3372 33.1129 71.2543 33.6117 71.2543 34.1818ZM78.0721 38V30.3636H79.2057V31.517H79.2852C79.4244 31.1392 79.6763 30.8326 80.0409 30.5973C80.4055 30.362 80.8165 30.2443 81.2738 30.2443C81.36 30.2443 81.4677 30.246 81.597 30.2493C81.7263 30.2526 81.824 30.2576 81.8903 30.2642V31.4574C81.8506 31.4474 81.7594 31.4325 81.6169 31.4126C81.4777 31.3894 81.3302 31.3778 81.1744 31.3778C80.8032 31.3778 80.4718 31.4557 80.1801 31.6115C79.8917 31.764 79.6631 31.9761 79.494 32.2479C79.3283 32.5163 79.2454 32.8229 79.2454 33.1676V38H78.0721ZM84.9683 38.179C84.4844 38.179 84.0452 38.0878 83.6508 37.9055C83.2564 37.7199 82.9432 37.4531 82.7112 37.1051C82.4792 36.7538 82.3632 36.3295 82.3632 35.8324C82.3632 35.3949 82.4493 35.0402 82.6217 34.7685C82.794 34.4934 83.0244 34.2779 83.3127 34.1222C83.6011 33.9664 83.9193 33.8504 84.2673 33.7741C84.6186 33.6946 84.9716 33.6316 85.3262 33.5852C85.7903 33.5256 86.1664 33.4808 86.4548 33.451C86.7465 33.4179 86.9586 33.3632 87.0912 33.2869C87.227 33.2107 87.295 33.0781 87.295 32.8892V32.8494C87.295 32.3589 87.1608 31.9777 86.8923 31.706C86.6271 31.4342 86.2244 31.2983 85.6842 31.2983C85.1241 31.2983 84.6849 31.4209 84.3667 31.6662C84.0485 31.9115 83.8248 32.1733 83.6956 32.4517L82.5819 32.054C82.7808 31.59 83.0459 31.2287 83.3774 30.9702C83.7121 30.7083 84.0767 30.526 84.4711 30.4233C84.8689 30.3172 85.26 30.2642 85.6444 30.2642C85.8897 30.2642 86.1714 30.294 86.4896 30.3537C86.8111 30.41 87.121 30.5277 87.4193 30.7067C87.7209 30.8857 87.9711 31.1558 88.17 31.517C88.3689 31.8783 88.4683 32.3622 88.4683 32.9688V38H87.295V36.9659H87.2353C87.1558 37.1316 87.0232 37.3089 86.8376 37.4979C86.652 37.6868 86.4051 37.8475 86.0968 37.9801C85.7886 38.1127 85.4124 38.179 84.9683 38.179ZM85.1473 37.125C85.6113 37.125 86.0024 37.0339 86.3206 36.8516C86.6421 36.6693 86.884 36.4339 87.0464 36.1456C87.2121 35.8572 87.295 35.554 87.295 35.2358V34.1619C87.2453 34.2216 87.1359 34.2763 86.9669 34.326C86.8011 34.3724 86.6089 34.4138 86.3902 34.4503C86.1747 34.4834 85.9643 34.5133 85.7588 34.5398C85.5566 34.563 85.3925 34.5829 85.2666 34.5994C84.9617 34.6392 84.6766 34.7038 84.4115 34.7933C84.1496 34.8795 83.9375 35.0104 83.7751 35.1861C83.616 35.3584 83.5365 35.5937 83.5365 35.892C83.5365 36.2997 83.6873 36.608 83.9889 36.8168C84.2938 37.0223 84.6799 37.125 85.1473 37.125ZM46.4084 47.7464C46.3686 47.3454 46.1979 47.0339 45.8963 46.8118C45.5947 46.5897 45.1854 46.4787 44.6683 46.4787C44.317 46.4787 44.0204 46.5284 43.7784 46.6278C43.5365 46.724 43.3509 46.8582 43.2216 47.0305C43.0956 47.2029 43.0327 47.3984 43.0327 47.6172C43.026 47.7995 43.0642 47.9586 43.147 48.0945C43.2332 48.2304 43.3509 48.348 43.5 48.4474C43.6491 48.5436 43.8215 48.6281 44.017 48.701C44.2126 48.7706 44.4214 48.8303 44.6435 48.88L45.5582 49.0987C46.0024 49.1982 46.41 49.3307 46.7812 49.4964C47.1525 49.6622 47.474 49.866 47.7457 50.108C48.0175 50.3499 48.228 50.6349 48.3771 50.9631C48.5296 51.2912 48.6075 51.6674 48.6108 52.0916C48.6075 52.7147 48.4484 53.255 48.1335 53.7124C47.822 54.1664 47.3712 54.5194 46.7812 54.7713C46.1946 55.0199 45.487 55.1442 44.6584 55.1442C43.8364 55.1442 43.1205 55.0182 42.5107 54.7663C41.9041 54.5144 41.4302 54.1416 41.0888 53.6477C40.7507 53.1506 40.5734 52.5357 40.5568 51.8033H42.6399C42.6631 52.1446 42.7609 52.4297 42.9332 52.6584C43.1089 52.8838 43.3426 53.0545 43.6342 53.1705C43.9292 53.2831 44.2623 53.3395 44.6335 53.3395C44.9981 53.3395 45.3146 53.2865 45.5831 53.1804C45.8549 53.0743 46.0653 52.9268 46.2145 52.7379C46.3636 52.549 46.4382 52.3319 46.4382 52.0866C46.4382 51.858 46.3703 51.6657 46.2344 51.5099C46.1018 51.3542 45.9063 51.2216 45.6477 51.1122C45.3925 51.0028 45.0793 50.9034 44.7081 50.8139L43.5994 50.5355C42.741 50.3267 42.0632 50.0002 41.5661 49.5561C41.0689 49.112 40.822 48.5137 40.8253 47.7614C40.822 47.1449 40.986 46.6063 41.3175 46.1456C41.6522 45.6849 42.1113 45.3253 42.6946 45.0668C43.2779 44.8082 43.9408 44.679 44.6832 44.679C45.4389 44.679 46.0985 44.8082 46.6619 45.0668C47.2287 45.3253 47.6695 45.6849 47.9844 46.1456C48.2992 46.6063 48.4616 47.1399 48.4716 47.7464H46.4084ZM52.9391 55.1491C52.1536 55.1491 51.4775 54.9901 50.9107 54.6719C50.3473 54.3504 49.9131 53.8963 49.6081 53.3097C49.3032 52.7197 49.1508 52.022 49.1508 51.2166C49.1508 50.4311 49.3032 49.7417 49.6081 49.1484C49.9131 48.5552 50.3423 48.0928 50.8958 47.7614C51.4526 47.4299 52.1055 47.2642 52.8546 47.2642C53.3584 47.2642 53.8274 47.3454 54.2616 47.5078C54.6991 47.6669 55.0802 47.9072 55.405 48.2287C55.7331 48.5502 55.9884 48.9545 56.1706 49.4418C56.3529 49.9257 56.4441 50.4924 56.4441 51.142V51.7237H49.9959V50.4112H54.4505C54.4505 50.1063 54.3842 49.8362 54.2516 49.6009C54.119 49.3655 53.9351 49.1816 53.6998 49.049C53.4678 48.9131 53.1976 48.8452 52.8894 48.8452C52.5679 48.8452 52.2829 48.9197 52.0343 49.0689C51.789 49.2147 51.5968 49.4119 51.4576 49.6605C51.3184 49.9058 51.2471 50.1792 51.2438 50.4808V51.7287C51.2438 52.1065 51.3134 52.433 51.4526 52.7081C51.5951 52.9832 51.7956 53.1953 52.0542 53.3445C52.3127 53.4936 52.6193 53.5682 52.9739 53.5682C53.2092 53.5682 53.4247 53.535 53.6202 53.4688C53.8158 53.4025 53.9831 53.303 54.1224 53.1705C54.2616 53.0379 54.3676 52.8755 54.4405 52.6832L56.3993 52.8125C56.2999 53.2831 56.0961 53.6941 55.7878 54.0455C55.4829 54.3935 55.0885 54.6652 54.6046 54.8608C54.124 55.053 53.5688 55.1491 52.9391 55.1491ZM60.7065 58.0227C60.0204 58.0227 59.4321 57.9283 58.9416 57.7393C58.4544 57.5537 58.0666 57.3002 57.7783 56.9787C57.4899 56.6572 57.3026 56.2959 57.2165 55.8949L59.1753 55.6314C59.2349 55.7839 59.3294 55.9264 59.4587 56.0589C59.5879 56.1915 59.7586 56.2976 59.9707 56.3771C60.1862 56.46 60.448 56.5014 60.7562 56.5014C61.2169 56.5014 61.5964 56.3887 61.8947 56.1634C62.1963 55.9413 62.3472 55.5684 62.3472 55.0447V53.6477H62.2577C62.1649 53.8598 62.0257 54.0604 61.84 54.2493C61.6544 54.4382 61.4158 54.5923 61.1241 54.7116C60.8325 54.831 60.4845 54.8906 60.0801 54.8906C59.5067 54.8906 58.9847 54.758 58.5141 54.4929C58.0467 54.2244 57.6739 53.8151 57.3954 53.2649C57.1204 52.7114 56.9828 52.0121 56.9828 51.1669C56.9828 50.3018 57.1237 49.5793 57.4054 48.9993C57.6871 48.4193 58.0616 47.9851 58.529 47.6967C58.9996 47.4084 59.515 47.2642 60.0751 47.2642C60.5027 47.2642 60.8606 47.3371 61.149 47.483C61.4374 47.6255 61.6694 47.8045 61.845 48.0199C62.024 48.232 62.1615 48.4408 62.2577 48.6463H62.3372V47.3636H64.4402V55.0746C64.4402 55.7242 64.2811 56.2678 63.9629 56.7053C63.6447 57.1428 63.2039 57.4709 62.6405 57.6896C62.0803 57.9117 61.4357 58.0227 60.7065 58.0227ZM60.7513 53.2997C61.0927 53.2997 61.381 53.2152 61.6163 53.0462C61.855 52.8738 62.0373 52.6286 62.1632 52.3104C62.2925 51.9889 62.3571 51.6044 62.3571 51.157C62.3571 50.7095 62.2941 50.3217 62.1682 49.9936C62.0422 49.6622 61.8599 49.4053 61.6213 49.223C61.3827 49.0407 61.0927 48.9496 60.7513 48.9496C60.4033 48.9496 60.1099 49.044 59.8713 49.233C59.6327 49.4186 59.452 49.6771 59.3294 50.0085C59.2068 50.34 59.1454 50.7228 59.1454 51.157C59.1454 51.5978 59.2068 51.9789 59.3294 52.3004C59.4553 52.6186 59.636 52.8655 59.8713 53.0412C60.1099 53.2135 60.4033 53.2997 60.7513 53.2997ZM70.4626 51.7486V47.3636H72.5805V55H70.5471V53.6129H70.4675C70.2952 54.0604 70.0085 54.42 69.6075 54.6918C69.2097 54.9635 68.7242 55.0994 68.1508 55.0994C67.6404 55.0994 67.1913 54.9834 66.8035 54.7514C66.4157 54.5194 66.1124 54.1896 65.8937 53.7621C65.6783 53.3345 65.5689 52.8224 65.5656 52.2259V47.3636H67.6835V51.848C67.6868 52.2988 67.8077 52.6551 68.0464 52.9169C68.285 53.1787 68.6049 53.3097 69.0059 53.3097C69.2611 53.3097 69.4997 53.2517 69.7218 53.1357C69.9439 53.0163 70.1229 52.8407 70.2587 52.6087C70.3979 52.3767 70.4659 52.09 70.4626 51.7486ZM73.7145 55V47.3636H75.7678V48.696H75.8474C75.9866 48.2221 76.2202 47.8641 76.5484 47.6222C76.8765 47.3769 77.2543 47.2543 77.6819 47.2543C77.7879 47.2543 77.9023 47.2609 78.0249 47.2741C78.1475 47.2874 78.2553 47.3056 78.3481 47.3288V49.2081C78.2486 49.1783 78.1111 49.1518 77.9354 49.1286C77.7598 49.1054 77.599 49.0938 77.4532 49.0938C77.1416 49.0938 76.8632 49.1617 76.618 49.2976C76.376 49.4302 76.1838 49.6158 76.0412 49.8544C75.902 50.093 75.8324 50.3681 75.8324 50.6797V55H73.7145ZM80.8419 55.1442C80.3547 55.1442 79.9205 55.0597 79.5393 54.8906C79.1582 54.7183 78.8565 54.4647 78.6345 54.13C78.4157 53.7919 78.3064 53.371 78.3064 52.8672C78.3064 52.4429 78.3842 52.0866 78.54 51.7983C78.6958 51.5099 78.9079 51.2779 79.1764 51.1023C79.4449 50.9266 79.7498 50.794 80.0912 50.7045C80.4359 50.6151 80.7971 50.5521 81.175 50.5156C81.6191 50.4692 81.977 50.4261 82.2488 50.3864C82.5206 50.3433 82.7178 50.2803 82.8404 50.1974C82.9631 50.1146 83.0244 49.992 83.0244 49.8295V49.7997C83.0244 49.4848 82.925 49.2412 82.7261 49.0689C82.5306 48.8965 82.2521 48.8104 81.8909 48.8104C81.5097 48.8104 81.2065 48.8949 80.9811 49.0639C80.7557 49.2296 80.6065 49.4384 80.5336 49.6903L78.5748 49.5312C78.6743 49.0672 78.8698 48.6662 79.1615 48.3281C79.4531 47.9867 79.8293 47.7249 80.29 47.5426C80.754 47.357 81.291 47.2642 81.9008 47.2642C82.3251 47.2642 82.7311 47.3139 83.1189 47.4134C83.51 47.5128 83.8563 47.6669 84.1579 47.8757C84.4628 48.0845 84.7031 48.353 84.8788 48.6811C85.0545 49.0059 85.1423 49.3954 85.1423 49.8494V55H83.1338V53.9411H83.0741C82.9515 54.1797 82.7874 54.3902 82.5819 54.5724C82.3764 54.7514 82.1295 54.8923 81.8412 54.995C81.5528 55.0945 81.2197 55.1442 80.8419 55.1442ZM81.4484 53.6825C81.76 53.6825 82.0351 53.6212 82.2737 53.4986C82.5123 53.3726 82.6996 53.2036 82.8355 52.9915C82.9714 52.7794 83.0393 52.5391 83.0393 52.2706V51.4602C82.973 51.5033 82.8819 51.5431 82.7659 51.5795C82.6532 51.6127 82.5256 51.6442 82.3831 51.674C82.2405 51.7005 82.098 51.7254 81.9555 51.7486C81.813 51.7685 81.6837 51.7867 81.5677 51.8033C81.3191 51.8397 81.102 51.8977 80.9164 51.9773C80.7308 52.0568 80.5867 52.1645 80.4839 52.3004C80.3812 52.433 80.3298 52.5987 80.3298 52.7976C80.3298 53.0859 80.4342 53.3063 80.643 53.4588C80.8551 53.608 81.1236 53.6825 81.4484 53.6825Z" fill="#02170C"/>
<g clip-path="url(#clip0_789_3745)">
<path d="M108.71 42.89L107.5 52L112.5 49L117.5 52L116.29 42.88M119.5 37C119.5 40.866 116.366 44 112.5 44C108.634 44 105.5 40.866 105.5 37C105.5 33.134 108.634 30 112.5 30C116.366 30 119.5 33.134 119.5 37Z" stroke="#02170C" stroke-width="2.5" stroke-linecap="round" stroke-linejoin="round"/>
</g>
<path d="M140.693 31C140.584 30.6652 140.44 30.3653 140.261 30.1001C140.085 29.8317 139.875 29.603 139.629 29.4141C139.387 29.2251 139.112 29.081 138.804 28.9815C138.496 28.8821 138.158 28.8324 137.79 28.8324C137.187 28.8324 136.638 28.9882 136.144 29.2997C135.65 29.6113 135.258 30.0703 134.966 30.6768C134.674 31.2834 134.528 32.0275 134.528 32.9091C134.528 33.7907 134.676 34.5348 134.971 35.1413C135.266 35.7479 135.665 36.2069 136.169 36.5185C136.673 36.83 137.24 36.9858 137.869 36.9858C138.453 36.9858 138.966 36.8615 139.411 36.6129C139.858 36.361 140.206 36.0064 140.455 35.549C140.706 35.0883 140.832 34.5464 140.832 33.9233L141.21 34.0028H138.148V32.9091H142.026V34.0028C142.026 34.8414 141.847 35.5705 141.489 36.1903C141.134 36.8101 140.643 37.2907 140.017 37.6321C139.394 37.9702 138.678 38.1392 137.869 38.1392C136.968 38.1392 136.176 37.9271 135.493 37.5028C134.813 37.0786 134.283 36.4754 133.902 35.6932C133.524 34.911 133.335 33.983 133.335 32.9091C133.335 32.1037 133.443 31.3795 133.658 30.7365C133.877 30.0902 134.185 29.54 134.583 29.0859C134.981 28.6319 135.451 28.2839 135.995 28.0419C136.539 27.8 137.137 27.679 137.79 27.679C138.327 27.679 138.827 27.7602 139.291 27.9226C139.759 28.0817 140.174 28.3087 140.539 28.6037C140.907 28.8954 141.214 29.245 141.459 29.6527C141.704 30.0571 141.873 30.5062 141.966 31H140.693ZM145.665 38.179C145.181 38.179 144.742 38.0878 144.348 37.9055C143.953 37.7199 143.64 37.4531 143.408 37.1051C143.176 36.7538 143.06 36.3295 143.06 35.8324C143.06 35.3949 143.146 35.0402 143.319 34.7685C143.491 34.4934 143.721 34.2779 144.01 34.1222C144.298 33.9664 144.616 33.8504 144.964 33.7741C145.316 33.6946 145.669 33.6316 146.023 33.5852C146.487 33.5256 146.863 33.4808 147.152 33.451C147.443 33.4179 147.656 33.3632 147.788 33.2869C147.924 33.2107 147.992 33.0781 147.992 32.8892V32.8494C147.992 32.3589 147.858 31.9777 147.589 31.706C147.324 31.4342 146.921 31.2983 146.381 31.2983C145.821 31.2983 145.382 31.4209 145.064 31.6662C144.746 31.9115 144.522 32.1733 144.393 32.4517L143.279 32.054C143.478 31.59 143.743 31.2287 144.074 30.9702C144.409 30.7083 144.774 30.526 145.168 30.4233C145.566 30.3172 145.957 30.2642 146.341 30.2642C146.587 30.2642 146.868 30.294 147.187 30.3537C147.508 30.41 147.818 30.5277 148.116 30.7067C148.418 30.8857 148.668 31.1558 148.867 31.517C149.066 31.8783 149.165 32.3622 149.165 32.9688V38H147.992V36.9659H147.932C147.853 37.1316 147.72 37.3089 147.535 37.4979C147.349 37.6868 147.102 37.8475 146.794 37.9801C146.486 38.1127 146.109 38.179 145.665 38.179ZM145.844 37.125C146.308 37.125 146.699 37.0339 147.018 36.8516C147.339 36.6693 147.581 36.4339 147.743 36.1456C147.909 35.8572 147.992 35.554 147.992 35.2358V34.1619C147.942 34.2216 147.833 34.2763 147.664 34.326C147.498 34.3724 147.306 34.4138 147.087 34.4503C146.872 34.4834 146.661 34.5133 146.456 34.5398C146.254 34.563 146.09 34.5829 145.964 34.5994C145.659 34.6392 145.374 34.7038 145.109 34.7933C144.847 34.8795 144.635 35.0104 144.472 35.1861C144.313 35.3584 144.234 35.5937 144.234 35.892C144.234 36.2997 144.384 36.608 144.686 36.8168C144.991 37.0223 145.377 37.125 145.844 37.125ZM150.747 38V30.3636H151.88V31.517H151.96C152.099 31.1392 152.351 30.8326 152.716 30.5973C153.08 30.362 153.491 30.2443 153.949 30.2443C154.035 30.2443 154.142 30.246 154.272 30.2493C154.401 30.2526 154.499 30.2576 154.565 30.2642V31.4574C154.525 31.4474 154.434 31.4325 154.292 31.4126C154.152 31.3894 154.005 31.3778 153.849 31.3778C153.478 31.3778 153.146 31.4557 152.855 31.6115C152.566 31.764 152.338 31.9761 152.169 32.2479C152.003 32.5163 151.92 32.8229 151.92 33.1676V38H150.747ZM157.643 38.179C157.159 38.179 156.72 38.0878 156.326 37.9055C155.931 37.7199 155.618 37.4531 155.386 37.1051C155.154 36.7538 155.038 36.3295 155.038 35.8324C155.038 35.3949 155.124 35.0402 155.296 34.7685C155.469 34.4934 155.699 34.2779 155.987 34.1222C156.276 33.9664 156.594 33.8504 156.942 33.7741C157.293 33.6946 157.646 33.6316 158.001 33.5852C158.465 33.5256 158.841 33.4808 159.129 33.451C159.421 33.4179 159.633 33.3632 159.766 33.2869C159.902 33.2107 159.97 33.0781 159.97 32.8892V32.8494C159.97 32.3589 159.835 31.9777 159.567 31.706C159.302 31.4342 158.899 31.2983 158.359 31.2983C157.799 31.2983 157.36 31.4209 157.041 31.6662C156.723 31.9115 156.5 32.1733 156.37 32.4517L155.257 32.054C155.455 31.59 155.721 31.2287 156.052 30.9702C156.387 30.7083 156.751 30.526 157.146 30.4233C157.544 30.3172 157.935 30.2642 158.319 30.2642C158.564 30.2642 158.846 30.294 159.164 30.3537C159.486 30.41 159.796 30.5277 160.094 30.7067C160.396 30.8857 160.646 31.1558 160.845 31.517C161.044 31.8783 161.143 32.3622 161.143 32.9688V38H159.97V36.9659H159.91C159.83 37.1316 159.698 37.3089 159.512 37.4979C159.327 37.6868 159.08 37.8475 158.772 37.9801C158.463 38.1127 158.087 38.179 157.643 38.179ZM157.822 37.125C158.286 37.125 158.677 37.0339 158.995 36.8516C159.317 36.6693 159.559 36.4339 159.721 36.1456C159.887 35.8572 159.97 35.554 159.97 35.2358V34.1619C159.92 34.2216 159.811 34.2763 159.642 34.326C159.476 34.3724 159.284 34.4138 159.065 34.4503C158.849 34.4834 158.639 34.5133 158.433 34.5398C158.231 34.563 158.067 34.5829 157.941 34.5994C157.636 34.6392 157.351 34.7038 157.086 34.7933C156.824 34.8795 156.612 35.0104 156.45 35.1861C156.291 35.3584 156.211 35.5937 156.211 35.892C156.211 36.2997 156.362 36.608 156.664 36.8168C156.968 37.0223 157.355 37.125 157.822 37.125ZM163.898 33.4062V38H162.724V30.3636H163.858V31.5568H163.957C164.136 31.169 164.408 30.8575 164.773 30.6222C165.137 30.3835 165.608 30.2642 166.185 30.2642C166.702 30.2642 167.154 30.3703 167.542 30.5824C167.93 30.7912 168.231 31.1094 168.447 31.5369C168.662 31.9612 168.77 32.4981 168.77 33.1477V38H167.597V33.2273C167.597 32.6274 167.441 32.16 167.129 31.8253C166.818 31.4872 166.39 31.3182 165.847 31.3182C165.472 31.3182 165.137 31.3994 164.842 31.5618C164.551 31.7242 164.32 31.9612 164.151 32.2727C163.982 32.5843 163.898 32.9621 163.898 33.4062ZM173.675 30.3636V31.358H169.718V30.3636H173.675ZM170.871 28.5341H172.044V35.8125C172.044 36.1439 172.092 36.3925 172.188 36.5582C172.288 36.7206 172.414 36.83 172.566 36.8864C172.722 36.9394 172.886 36.9659 173.058 36.9659C173.188 36.9659 173.294 36.9593 173.377 36.946C173.46 36.9295 173.526 36.9162 173.576 36.9062L173.814 37.9602C173.735 37.9901 173.624 38.0199 173.481 38.0497C173.339 38.0829 173.158 38.0994 172.939 38.0994C172.608 38.0994 172.283 38.0282 171.965 37.8857C171.65 37.7431 171.388 37.526 171.179 37.2344C170.974 36.9427 170.871 36.5748 170.871 36.1307V28.5341ZM174.88 38V30.3636H176.053V38H174.88ZM175.476 29.0909C175.248 29.0909 175.051 29.013 174.885 28.8572C174.722 28.7015 174.641 28.5142 174.641 28.2955C174.641 28.0767 174.722 27.8894 174.885 27.7337C175.051 27.5779 175.248 27.5 175.476 27.5C175.705 27.5 175.901 27.5779 176.063 27.7337C176.229 27.8894 176.312 28.0767 176.312 28.2955C176.312 28.5142 176.229 28.7015 176.063 28.8572C175.901 29.013 175.705 29.0909 175.476 29.0909ZM179.889 38.179C179.405 38.179 178.966 38.0878 178.572 37.9055C178.177 37.7199 177.864 37.4531 177.632 37.1051C177.4 36.7538 177.284 36.3295 177.284 35.8324C177.284 35.3949 177.37 35.0402 177.543 34.7685C177.715 34.4934 177.945 34.2779 178.234 34.1222C178.522 33.9664 178.84 33.8504 179.188 33.7741C179.54 33.6946 179.893 33.6316 180.247 33.5852C180.711 33.5256 181.087 33.4808 181.376 33.451C181.667 33.4179 181.88 33.3632 182.012 33.2869C182.148 33.2107 182.216 33.0781 182.216 32.8892V32.8494C182.216 32.3589 182.082 31.9777 181.813 31.706C181.548 31.4342 181.145 31.2983 180.605 31.2983C180.045 31.2983 179.606 31.4209 179.288 31.6662C178.97 31.9115 178.746 32.1733 178.617 32.4517L177.503 32.054C177.702 31.59 177.967 31.2287 178.298 30.9702C178.633 30.7083 178.998 30.526 179.392 30.4233C179.79 30.3172 180.181 30.2642 180.565 30.2642C180.811 30.2642 181.092 30.294 181.411 30.3537C181.732 30.41 182.042 30.5277 182.34 30.7067C182.642 30.8857 182.892 31.1558 183.091 31.517C183.29 31.8783 183.389 32.3622 183.389 32.9688V38H182.216V36.9659H182.156C182.077 37.1316 181.944 37.3089 181.759 37.4979C181.573 37.6868 181.326 37.8475 181.018 37.9801C180.71 38.1127 180.333 38.179 179.889 38.179ZM180.068 37.125C180.532 37.125 180.923 37.0339 181.242 36.8516C181.563 36.6693 181.805 36.4339 181.967 36.1456C182.133 35.8572 182.216 35.554 182.216 35.2358V34.1619C182.166 34.2216 182.057 34.2763 181.888 34.326C181.722 34.3724 181.53 34.4138 181.311 34.4503C181.096 34.4834 180.885 34.5133 180.68 34.5398C180.478 34.563 180.314 34.5829 180.188 34.5994C179.883 34.6392 179.598 34.7038 179.332 34.7933C179.071 34.8795 178.859 35.0104 178.696 35.1861C178.537 35.3584 178.457 35.5937 178.457 35.892C178.457 36.2997 178.608 36.608 178.91 36.8168C179.215 37.0223 179.601 37.125 180.068 37.125ZM191.232 38.1591C190.595 38.1591 190.034 37.9983 189.546 37.6768C189.059 37.352 188.678 36.8946 188.403 36.3047C188.128 35.7114 187.99 35.0104 187.99 34.2017C187.99 33.3996 188.128 32.7036 188.403 32.1136C188.678 31.5237 189.061 31.0679 189.551 30.7464C190.042 30.425 190.609 30.2642 191.252 30.2642C191.749 30.2642 192.142 30.3471 192.43 30.5128C192.722 30.6752 192.944 30.8608 193.096 31.0696C193.252 31.2751 193.373 31.4441 193.459 31.5767H193.559V27.8182H194.732V38H193.598V36.8267H193.459C193.373 36.9659 193.25 37.1416 193.091 37.3537C192.932 37.5625 192.705 37.7498 192.41 37.9155C192.115 38.0779 191.722 38.1591 191.232 38.1591ZM191.391 37.1051C191.862 37.1051 192.259 36.9825 192.584 36.7372C192.909 36.4886 193.156 36.1456 193.325 35.7081C193.494 35.2673 193.578 34.7585 193.578 34.1818C193.578 33.6117 193.496 33.1129 193.33 32.6854C193.164 32.2545 192.919 31.9197 192.594 31.6811C192.269 31.4392 191.868 31.3182 191.391 31.3182C190.894 31.3182 190.479 31.4458 190.148 31.701C189.82 31.9529 189.573 32.2959 189.407 32.7301C189.245 33.161 189.164 33.6449 189.164 34.1818C189.164 34.7254 189.247 35.2192 189.412 35.6634C189.581 36.1042 189.83 36.4555 190.158 36.7173C190.489 36.9759 190.9 37.1051 191.391 37.1051ZM199.685 38.1591C198.95 38.1591 198.315 37.9967 197.781 37.6719C197.251 37.3438 196.842 36.8864 196.553 36.2997C196.268 35.7098 196.126 35.0237 196.126 34.2415C196.126 33.4593 196.268 32.7699 196.553 32.1733C196.842 31.5734 197.243 31.1061 197.756 30.7713C198.273 30.4332 198.877 30.2642 199.566 30.2642C199.964 30.2642 200.357 30.3305 200.744 30.4631C201.132 30.5956 201.485 30.8111 201.803 31.1094C202.121 31.4044 202.375 31.7955 202.564 32.2827C202.753 32.7699 202.847 33.3698 202.847 34.0824V34.5795H196.961V33.5653H201.654C201.654 33.1345 201.568 32.75 201.396 32.4119C201.227 32.0739 200.985 31.8071 200.67 31.6115C200.358 31.416 199.99 31.3182 199.566 31.3182C199.099 31.3182 198.694 31.4342 198.353 31.6662C198.015 31.8949 197.755 32.1932 197.572 32.5611C197.39 32.929 197.299 33.3234 197.299 33.7443V34.4205C197.299 34.9972 197.398 35.486 197.597 35.8871C197.799 36.2848 198.08 36.5881 198.437 36.7969C198.795 37.0024 199.211 37.1051 199.685 37.1051C199.994 37.1051 200.272 37.062 200.521 36.9759C200.772 36.8864 200.99 36.7538 201.172 36.5781C201.354 36.3991 201.495 36.1771 201.594 35.9119L202.728 36.2301C202.609 36.6146 202.408 36.9527 202.126 37.2443C201.845 37.5327 201.497 37.758 201.082 37.9205C200.668 38.0795 200.202 38.1591 199.685 38.1591ZM133.385 55V44.8182H137.402C138.174 44.8182 138.832 44.9657 139.376 45.2607C139.919 45.5523 140.334 45.9583 140.619 46.4787C140.907 46.9957 141.051 47.5923 141.051 48.2685C141.051 48.9446 140.905 49.5412 140.614 50.0582C140.322 50.5753 139.899 50.978 139.346 51.2663C138.796 51.5547 138.129 51.6989 137.347 51.6989H134.787V49.9737H136.999C137.414 49.9737 137.755 49.9025 138.023 49.7599C138.295 49.6141 138.497 49.4136 138.63 49.1584C138.766 48.8999 138.834 48.6032 138.834 48.2685C138.834 47.9304 138.766 47.6354 138.63 47.3835C138.497 47.1283 138.295 46.9311 138.023 46.7919C137.752 46.6494 137.407 46.5781 136.989 46.5781H135.538V55H133.385ZM143.822 55.1442C143.335 55.1442 142.901 55.0597 142.52 54.8906C142.138 54.7183 141.837 54.4647 141.615 54.13C141.396 53.7919 141.287 53.371 141.287 52.8672C141.287 52.4429 141.364 52.0866 141.52 51.7983C141.676 51.5099 141.888 51.2779 142.157 51.1023C142.425 50.9266 142.73 50.794 143.071 50.7045C143.416 50.6151 143.777 50.5521 144.155 50.5156C144.599 50.4692 144.957 50.4261 145.229 50.3864C145.501 50.3433 145.698 50.2803 145.821 50.1974C145.943 50.1146 146.005 49.992 146.005 49.8295V49.7997C146.005 49.4848 145.905 49.2412 145.706 49.0689C145.511 48.8965 145.232 48.8104 144.871 48.8104C144.49 48.8104 144.187 48.8949 143.961 49.0639C143.736 49.2296 143.587 49.4384 143.514 49.6903L141.555 49.5312C141.654 49.0672 141.85 48.6662 142.142 48.3281C142.433 47.9867 142.81 47.7249 143.27 47.5426C143.734 47.357 144.271 47.2642 144.881 47.2642C145.305 47.2642 145.711 47.3139 146.099 47.4134C146.49 47.5128 146.837 47.6669 147.138 47.8757C147.443 48.0845 147.683 48.353 147.859 48.6811C148.035 49.0059 148.123 49.3954 148.123 49.8494V55H146.114V53.9411H146.054C145.932 54.1797 145.768 54.3902 145.562 54.5724C145.357 54.7514 145.11 54.8923 144.821 54.995C144.533 55.0945 144.2 55.1442 143.822 55.1442ZM144.429 53.6825C144.74 53.6825 145.015 53.6212 145.254 53.4986C145.493 53.3726 145.68 53.2036 145.816 52.9915C145.952 52.7794 146.02 52.5391 146.02 52.2706V51.4602C145.953 51.5033 145.862 51.5431 145.746 51.5795C145.633 51.6127 145.506 51.6442 145.363 51.674C145.221 51.7005 145.078 51.7254 144.936 51.7486C144.793 51.7685 144.664 51.7867 144.548 51.8033C144.299 51.8397 144.082 51.8977 143.897 51.9773C143.711 52.0568 143.567 52.1645 143.464 52.3004C143.361 52.433 143.31 52.5987 143.31 52.7976C143.31 53.0859 143.414 53.3063 143.623 53.4588C143.835 53.608 144.104 53.6825 144.429 53.6825ZM152.646 58.0227C151.96 58.0227 151.372 57.9283 150.881 57.7393C150.394 57.5537 150.006 57.3002 149.718 56.9787C149.429 56.6572 149.242 56.2959 149.156 55.8949L151.115 55.6314C151.174 55.7839 151.269 55.9264 151.398 56.0589C151.527 56.1915 151.698 56.2976 151.91 56.3771C152.126 56.46 152.387 56.5014 152.696 56.5014C153.156 56.5014 153.536 56.3887 153.834 56.1634C154.136 55.9413 154.287 55.5684 154.287 55.0447V53.6477H154.197C154.104 53.8598 153.965 54.0604 153.78 54.2493C153.594 54.4382 153.355 54.5923 153.064 54.7116C152.772 54.831 152.424 54.8906 152.02 54.8906C151.446 54.8906 150.924 54.758 150.454 54.4929C149.986 54.2244 149.613 53.8151 149.335 53.2649C149.06 52.7114 148.922 52.0121 148.922 51.1669C148.922 50.3018 149.063 49.5793 149.345 48.9993C149.627 48.4193 150.001 47.9851 150.468 47.6967C150.939 47.4084 151.454 47.2642 152.015 47.2642C152.442 47.2642 152.8 47.3371 153.088 47.483C153.377 47.6255 153.609 47.8045 153.784 48.0199C153.963 48.232 154.101 48.4408 154.197 48.6463H154.277V47.3636H156.38V55.0746C156.38 55.7242 156.221 56.2678 155.902 56.7053C155.584 57.1428 155.143 57.4709 154.58 57.6896C154.02 57.9117 153.375 58.0227 152.646 58.0227ZM152.691 53.2997C153.032 53.2997 153.32 53.2152 153.556 53.0462C153.794 52.8738 153.977 52.6286 154.103 52.3104C154.232 51.9889 154.297 51.6044 154.297 51.157C154.297 50.7095 154.234 50.3217 154.108 49.9936C153.982 49.6622 153.799 49.4053 153.561 49.223C153.322 49.0407 153.032 48.9496 152.691 48.9496C152.343 48.9496 152.049 49.044 151.811 49.233C151.572 49.4186 151.391 49.6771 151.269 50.0085C151.146 50.34 151.085 50.7228 151.085 51.157C151.085 51.5978 151.146 51.9789 151.269 52.3004C151.395 52.6186 151.575 52.8655 151.811 53.0412C152.049 53.2135 152.343 53.2997 152.691 53.2997ZM159.683 55.1442C159.195 55.1442 158.761 55.0597 158.38 54.8906C157.999 54.7183 157.697 54.4647 157.475 54.13C157.256 53.7919 157.147 53.371 157.147 52.8672C157.147 52.4429 157.225 52.0866 157.381 51.7983C157.537 51.5099 157.749 51.2779 158.017 51.1023C158.286 50.9266 158.59 50.794 158.932 50.7045C159.277 50.6151 159.638 50.5521 160.016 50.5156C160.46 50.4692 160.818 50.4261 161.09 50.3864C161.361 50.3433 161.559 50.2803 161.681 50.1974C161.804 50.1146 161.865 49.992 161.865 49.8295V49.7997C161.865 49.4848 161.766 49.2412 161.567 49.0689C161.371 48.8965 161.093 48.8104 160.732 48.8104C160.35 48.8104 160.047 48.8949 159.822 49.0639C159.596 49.2296 159.447 49.4384 159.374 49.6903L157.416 49.5312C157.515 49.0672 157.711 48.6662 158.002 48.3281C158.294 47.9867 158.67 47.7249 159.131 47.5426C159.595 47.357 160.132 47.2642 160.742 47.2642C161.166 47.2642 161.572 47.3139 161.96 47.4134C162.351 47.5128 162.697 47.6669 162.999 47.8757C163.304 48.0845 163.544 48.353 163.72 48.6811C163.895 49.0059 163.983 49.3954 163.983 49.8494V55H161.974V53.9411H161.915C161.792 54.1797 161.628 54.3902 161.423 54.5724C161.217 54.7514 160.97 54.8923 160.682 54.995C160.394 55.0945 160.06 55.1442 159.683 55.1442ZM160.289 53.6825C160.601 53.6825 160.876 53.6212 161.114 53.4986C161.353 53.3726 161.54 53.2036 161.676 52.9915C161.812 52.7794 161.88 52.5391 161.88 52.2706V51.4602C161.814 51.5033 161.723 51.5431 161.607 51.5795C161.494 51.6127 161.366 51.6442 161.224 51.674C161.081 51.7005 160.939 51.7254 160.796 51.7486C160.654 51.7685 160.524 51.7867 160.408 51.8033C160.16 51.8397 159.943 51.8977 159.757 51.9773C159.572 52.0568 159.427 52.1645 159.325 52.3004C159.222 52.433 159.17 52.5987 159.17 52.7976C159.17 53.0859 159.275 53.3063 159.484 53.4588C159.696 53.608 159.964 53.6825 160.289 53.6825ZM165.066 55V47.3636H167.085V48.7109H167.174C167.333 48.2635 167.598 47.9105 167.97 47.652C168.341 47.3935 168.785 47.2642 169.302 47.2642C169.826 47.2642 170.271 47.3951 170.639 47.657C171.007 47.9155 171.252 48.2668 171.375 48.7109H171.455C171.61 48.2734 171.892 47.9238 172.3 47.6619C172.711 47.3968 173.196 47.2642 173.756 47.2642C174.469 47.2642 175.047 47.4912 175.492 47.9453C175.939 48.3961 176.163 49.0357 176.163 49.8643V55H174.05V50.282C174.05 49.8577 173.937 49.5395 173.712 49.3274C173.486 49.1153 173.205 49.0092 172.867 49.0092C172.482 49.0092 172.182 49.1319 171.967 49.3771C171.751 49.6191 171.644 49.9389 171.644 50.3366V55H169.59V50.2372C169.59 49.8627 169.483 49.5644 169.267 49.3423C169.055 49.1203 168.775 49.0092 168.427 49.0092C168.192 49.0092 167.979 49.0689 167.791 49.1882C167.605 49.3042 167.457 49.4683 167.348 49.6804C167.239 49.8892 167.184 50.1345 167.184 50.4162V55H165.066ZM180.756 55.1491C179.97 55.1491 179.294 54.9901 178.727 54.6719C178.164 54.3504 177.73 53.8963 177.425 53.3097C177.12 52.7197 176.967 52.022 176.967 51.2166C176.967 50.4311 177.12 49.7417 177.425 49.1484C177.73 48.5552 178.159 48.0928 178.712 47.7614C179.269 47.4299 179.922 47.2642 180.671 47.2642C181.175 47.2642 181.644 47.3454 182.078 47.5078C182.516 47.6669 182.897 47.9072 183.222 48.2287C183.55 48.5502 183.805 48.9545 183.987 49.4418C184.17 49.9257 184.261 50.4924 184.261 51.142V51.7237H177.813V50.4112H182.267C182.267 50.1063 182.201 49.8362 182.068 49.6009C181.936 49.3655 181.752 49.1816 181.516 49.049C181.284 48.9131 181.014 48.8452 180.706 48.8452C180.385 48.8452 180.1 48.9197 179.851 49.0689C179.606 49.2147 179.413 49.4119 179.274 49.6605C179.135 49.9058 179.064 50.1792 179.06 50.4808V51.7287C179.06 52.1065 179.13 52.433 179.269 52.7081C179.412 52.9832 179.612 53.1953 179.871 53.3445C180.129 53.4936 180.436 53.5682 180.791 53.5682C181.026 53.5682 181.241 53.535 181.437 53.4688C181.632 53.4025 181.8 53.303 181.939 53.1705C182.078 53.0379 182.184 52.8755 182.257 52.6832L184.216 52.8125C184.117 53.2831 183.913 53.6941 183.604 54.0455C183.3 54.3935 182.905 54.6652 182.421 54.8608C181.941 55.053 181.385 55.1491 180.756 55.1491ZM187.201 50.5852V55H185.083V47.3636H187.101V48.7109H187.191C187.36 48.2668 187.643 47.9155 188.041 47.657C188.439 47.3951 188.921 47.2642 189.488 47.2642C190.018 47.2642 190.48 47.3802 190.875 47.6122C191.269 47.8442 191.576 48.1757 191.794 48.6065C192.013 49.0341 192.123 49.5445 192.123 50.1378V55H190.005V50.5156C190.008 50.0483 189.889 49.6837 189.647 49.4219C189.405 49.1567 189.072 49.0241 188.647 49.0241C188.362 49.0241 188.111 49.0855 187.892 49.2081C187.676 49.3307 187.507 49.5097 187.385 49.745C187.265 49.977 187.204 50.2571 187.201 50.5852ZM197.294 47.3636V48.9545H192.695V47.3636H197.294ZM193.739 45.5341H195.857V52.6534C195.857 52.849 195.887 53.0014 195.946 53.1108C196.006 53.2169 196.089 53.2914 196.195 53.3345C196.304 53.3776 196.43 53.3991 196.573 53.3991C196.672 53.3991 196.772 53.3909 196.871 53.3743C196.97 53.3544 197.047 53.3395 197.1 53.3295L197.433 54.9055C197.327 54.9387 197.178 54.9768 196.985 55.0199C196.793 55.0663 196.559 55.0945 196.284 55.1044C195.774 55.1243 195.327 55.0563 194.942 54.9006C194.561 54.7448 194.264 54.5028 194.052 54.1747C193.84 53.8466 193.736 53.4323 193.739 52.9318V45.5341ZM201.481 55.1491C200.709 55.1491 200.041 54.9851 199.478 54.657C198.918 54.3255 198.485 53.8648 198.18 53.2749C197.875 52.6816 197.723 51.9938 197.723 51.2116C197.723 50.4228 197.875 49.7334 198.18 49.1435C198.485 48.5502 198.918 48.0895 199.478 47.7614C200.041 47.4299 200.709 47.2642 201.481 47.2642C202.254 47.2642 202.92 47.4299 203.48 47.7614C204.043 48.0895 204.478 48.5502 204.783 49.1435C205.088 49.7334 205.24 50.4228 205.24 51.2116C205.24 51.9938 205.088 52.6816 204.783 53.2749C204.478 53.8648 204.043 54.3255 203.48 54.657C202.92 54.9851 202.254 55.1491 201.481 55.1491ZM201.491 53.5085C201.843 53.5085 202.136 53.4091 202.371 53.2102C202.607 53.008 202.784 52.733 202.903 52.3849C203.026 52.0369 203.087 51.6409 203.087 51.1967C203.087 50.7526 203.026 50.3565 202.903 50.0085C202.784 49.6605 202.607 49.3854 202.371 49.1832C202.136 48.9811 201.843 48.88 201.491 48.88C201.137 48.88 200.838 48.9811 200.597 49.1832C200.358 49.3854 200.177 49.6605 200.055 50.0085C199.935 50.3565 199.876 50.7526 199.876 51.1967C199.876 51.6409 199.935 52.0369 200.055 52.3849C200.177 52.733 200.358 53.008 200.597 53.2102C200.838 53.4091 201.137 53.5085 201.491 53.5085Z" fill="#02170C"/>
<path d="M224 40V36C224 34.6739 224.527 33.4021 225.464 32.4645C226.402 31.5268 227.674 31 229 31C230.326 31 231.598 31.5268 232.536 32.4645C233.473 33.4021 234 34.6739 234 36V40M222 40H236C237.105 40 238 40.8954 238 42V49C238 50.1046 237.105 51 236 51H222C220.895 51 220 50.1046 220 49V42C220 40.8954 220.895 40 222 40Z" stroke="#02170C" stroke-width="2.5" stroke-linecap="round" stroke-linejoin="round"/>
<path d="M250.233 38V27.8182H253.673C254.472 27.8182 255.125 27.9624 255.632 28.2507C256.143 28.5357 256.52 28.9219 256.766 29.4091C257.011 29.8963 257.134 30.4399 257.134 31.0398C257.134 31.6397 257.011 32.1849 256.766 32.6754C256.524 33.166 256.149 33.5571 255.642 33.8487C255.135 34.1371 254.485 34.2812 253.693 34.2812H251.227V33.1875H253.653C254.2 33.1875 254.639 33.093 254.971 32.9041C255.302 32.7152 255.543 32.46 255.692 32.1385C255.844 31.8137 255.92 31.4474 255.92 31.0398C255.92 30.6321 255.844 30.2675 255.692 29.946C255.543 29.6245 255.301 29.3726 254.966 29.1903C254.631 29.0047 254.187 28.9119 253.634 28.9119H251.466V38H250.233ZM258.401 38V30.3636H259.534V31.517H259.614C259.753 31.1392 260.005 30.8326 260.369 30.5973C260.734 30.362 261.145 30.2443 261.602 30.2443C261.688 30.2443 261.796 30.246 261.925 30.2493C262.055 30.2526 262.152 30.2576 262.219 30.2642V31.4574C262.179 31.4474 262.088 31.4325 261.945 31.4126C261.806 31.3894 261.659 31.3778 261.503 31.3778C261.132 31.3778 260.8 31.4557 260.509 31.6115C260.22 31.764 259.991 31.9761 259.822 32.2479C259.657 32.5163 259.574 32.8229 259.574 33.1676V38H258.401ZM263.05 38V30.3636H264.223V38H263.05ZM263.646 29.0909C263.417 29.0909 263.22 29.013 263.055 28.8572C262.892 28.7015 262.811 28.5142 262.811 28.2955C262.811 28.0767 262.892 27.8894 263.055 27.7337C263.22 27.5779 263.417 27.5 263.646 27.5C263.875 27.5 264.07 27.5779 264.233 27.7337C264.399 27.8894 264.481 28.0767 264.481 28.2955C264.481 28.5142 264.399 28.7015 264.233 28.8572C264.07 29.013 263.875 29.0909 263.646 29.0909ZM272.056 30.3636L269.232 38H268.039L265.215 30.3636H266.488L268.596 36.4489H268.675L270.783 30.3636H272.056ZM275.06 38.179C274.576 38.179 274.136 38.0878 273.742 37.9055C273.348 37.7199 273.034 37.4531 272.802 37.1051C272.57 36.7538 272.454 36.3295 272.454 35.8324C272.454 35.3949 272.541 35.0402 272.713 34.7685C272.885 34.4934 273.116 34.2779 273.404 34.1222C273.692 33.9664 274.011 33.8504 274.359 33.7741C274.71 33.6946 275.063 33.6316 275.417 33.5852C275.882 33.5256 276.258 33.4808 276.546 33.451C276.838 33.4179 277.05 33.3632 277.182 33.2869C277.318 33.2107 277.386 33.0781 277.386 32.8892V32.8494C277.386 32.3589 277.252 31.9777 276.984 31.706C276.718 31.4342 276.316 31.2983 275.775 31.2983C275.215 31.2983 274.776 31.4209 274.458 31.6662C274.14 31.9115 273.916 32.1733 273.787 32.4517L272.673 32.054C272.872 31.59 273.137 31.2287 273.469 30.9702C273.803 30.7083 274.168 30.526 274.562 30.4233C274.96 30.3172 275.351 30.2642 275.736 30.2642C275.981 30.2642 276.263 30.294 276.581 30.3537C276.902 30.41 277.212 30.5277 277.511 30.7067C277.812 30.8857 278.062 31.1558 278.261 31.517C278.46 31.8783 278.56 32.3622 278.56 32.9688V38H277.386V36.9659H277.327C277.247 37.1316 277.114 37.3089 276.929 37.4979C276.743 37.6868 276.496 37.8475 276.188 37.9801C275.88 38.1127 275.504 38.179 275.06 38.179ZM275.239 37.125C275.703 37.125 276.094 37.0339 276.412 36.8516C276.733 36.6693 276.975 36.4339 277.138 36.1456C277.303 35.8572 277.386 35.554 277.386 35.2358V34.1619C277.337 34.2216 277.227 34.2763 277.058 34.326C276.892 34.3724 276.7 34.4138 276.481 34.4503C276.266 34.4834 276.056 34.5133 275.85 34.5398C275.648 34.563 275.484 34.5829 275.358 34.5994C275.053 34.6392 274.768 34.7038 274.503 34.7933C274.241 34.8795 274.029 35.0104 273.866 35.1861C273.707 35.3584 273.628 35.5937 273.628 35.892C273.628 36.2997 273.779 36.608 274.08 36.8168C274.385 37.0223 274.771 37.125 275.239 37.125ZM283.243 38.1591C282.527 38.1591 281.911 37.9901 281.394 37.652C280.877 37.3139 280.479 36.8482 280.201 36.255C279.922 35.6617 279.783 34.9839 279.783 34.2216C279.783 33.446 279.926 32.7616 280.211 32.1683C280.499 31.5717 280.9 31.1061 281.414 30.7713C281.931 30.4332 282.534 30.2642 283.223 30.2642C283.76 30.2642 284.244 30.3636 284.675 30.5625C285.106 30.7614 285.459 31.0398 285.734 31.3977C286.009 31.7557 286.18 32.1733 286.246 32.6506H285.073C284.983 32.3026 284.785 31.9943 284.476 31.7259C284.171 31.4541 283.76 31.3182 283.243 31.3182C282.786 31.3182 282.385 31.4375 282.04 31.6761C281.699 31.9115 281.432 32.2446 281.24 32.6754C281.051 33.103 280.956 33.6051 280.956 34.1818C280.956 34.7718 281.049 35.2855 281.235 35.723C281.424 36.1605 281.689 36.5002 282.03 36.7422C282.375 36.9841 282.779 37.1051 283.243 37.1051C283.548 37.1051 283.825 37.0521 284.074 36.946C284.322 36.84 284.533 36.6875 284.705 36.4886C284.877 36.2898 285 36.0511 285.073 35.7727H286.246C286.18 36.2235 286.016 36.6295 285.754 36.9908C285.495 37.3487 285.152 37.6338 284.725 37.8459C284.301 38.0547 283.807 38.1591 283.243 38.1591ZM287.401 38V30.3636H288.575V38H287.401ZM287.998 29.0909C287.769 29.0909 287.572 29.013 287.406 28.8572C287.244 28.7015 287.163 28.5142 287.163 28.2955C287.163 28.0767 287.244 27.8894 287.406 27.7337C287.572 27.5779 287.769 27.5 287.998 27.5C288.227 27.5 288.422 27.5779 288.585 27.7337C288.75 27.8894 288.833 28.0767 288.833 28.2955C288.833 28.5142 288.75 28.7015 288.585 28.8572C288.422 29.013 288.227 29.0909 287.998 29.0909ZM293.047 38.1591C292.411 38.1591 291.849 37.9983 291.362 37.6768C290.875 37.352 290.493 36.8946 290.218 36.3047C289.943 35.7114 289.806 35.0104 289.806 34.2017C289.806 33.3996 289.943 32.7036 290.218 32.1136C290.493 31.5237 290.876 31.0679 291.367 30.7464C291.857 30.425 292.424 30.2642 293.067 30.2642C293.564 30.2642 293.957 30.3471 294.245 30.5128C294.537 30.6752 294.759 30.8608 294.912 31.0696C295.067 31.2751 295.188 31.4441 295.274 31.5767H295.374V27.8182H296.547V38H295.414V36.8267H295.274C295.188 36.9659 295.066 37.1416 294.907 37.3537C294.747 37.5625 294.52 37.7498 294.225 37.9155C293.93 38.0779 293.538 38.1591 293.047 38.1591ZM293.206 37.1051C293.677 37.1051 294.075 36.9825 294.399 36.7372C294.724 36.4886 294.971 36.1456 295.14 35.7081C295.309 35.2673 295.394 34.7585 295.394 34.1818C295.394 33.6117 295.311 33.1129 295.145 32.6854C294.979 32.2545 294.734 31.9197 294.409 31.6811C294.085 31.4392 293.684 31.3182 293.206 31.3182C292.709 31.3182 292.295 31.4458 291.963 31.701C291.635 31.9529 291.388 32.2959 291.223 32.7301C291.06 33.161 290.979 33.6449 290.979 34.1818C290.979 34.7254 291.062 35.2192 291.228 35.6634C291.397 36.1042 291.645 36.4555 291.973 36.7173C292.305 36.9759 292.716 37.1051 293.206 37.1051ZM300.546 38.179C300.062 38.179 299.623 38.0878 299.229 37.9055C298.834 37.7199 298.521 37.4531 298.289 37.1051C298.057 36.7538 297.941 36.3295 297.941 35.8324C297.941 35.3949 298.027 35.0402 298.2 34.7685C298.372 34.4934 298.602 34.2779 298.891 34.1222C299.179 33.9664 299.497 33.8504 299.845 33.7741C300.196 33.6946 300.549 33.6316 300.904 33.5852C301.368 33.5256 301.744 33.4808 302.033 33.451C302.324 33.4179 302.536 33.3632 302.669 33.2869C302.805 33.2107 302.873 33.0781 302.873 32.8892V32.8494C302.873 32.3589 302.739 31.9777 302.47 31.706C302.205 31.4342 301.802 31.2983 301.262 31.2983C300.702 31.2983 300.263 31.4209 299.945 31.6662C299.626 31.9115 299.403 32.1733 299.273 32.4517L298.16 32.054C298.359 31.59 298.624 31.2287 298.955 30.9702C299.29 30.7083 299.655 30.526 300.049 30.4233C300.447 30.3172 300.838 30.2642 301.222 30.2642C301.468 30.2642 301.749 30.294 302.067 30.3537C302.389 30.41 302.699 30.5277 302.997 30.7067C303.299 30.8857 303.549 31.1558 303.748 31.517C303.947 31.8783 304.046 32.3622 304.046 32.9688V38H302.873V36.9659H302.813C302.734 37.1316 302.601 37.3089 302.415 37.4979C302.23 37.6868 301.983 37.8475 301.675 37.9801C301.366 38.1127 300.99 38.179 300.546 38.179ZM300.725 37.125C301.189 37.125 301.58 37.0339 301.898 36.8516C302.22 36.6693 302.462 36.4339 302.624 36.1456C302.79 35.8572 302.873 35.554 302.873 35.2358V34.1619C302.823 34.2216 302.714 34.2763 302.545 34.326C302.379 34.3724 302.187 34.4138 301.968 34.4503C301.753 34.4834 301.542 34.5133 301.337 34.5398C301.134 34.563 300.97 34.5829 300.844 34.5994C300.539 34.6392 300.254 34.7038 299.989 34.7933C299.727 34.8795 299.515 35.0104 299.353 35.1861C299.194 35.3584 299.114 35.5937 299.114 35.892C299.114 36.2997 299.265 36.608 299.567 36.8168C299.872 37.0223 300.258 37.125 300.725 37.125ZM308.511 38.1591C307.875 38.1591 307.313 37.9983 306.826 37.6768C306.339 37.352 305.957 36.8946 305.682 36.3047C305.407 35.7114 305.27 35.0104 305.27 34.2017C305.27 33.3996 305.407 32.7036 305.682 32.1136C305.957 31.5237 306.34 31.0679 306.831 30.7464C307.321 30.425 307.888 30.2642 308.531 30.2642C309.028 30.2642 309.421 30.3471 309.709 30.5128C310.001 30.6752 310.223 30.8608 310.375 31.0696C310.531 31.2751 310.652 31.4441 310.738 31.5767H310.838V27.8182H312.011V38H310.878V36.8267H310.738C310.652 36.9659 310.53 37.1416 310.371 37.3537C310.211 37.5625 309.984 37.7498 309.689 37.9155C309.394 38.0779 309.002 38.1591 308.511 38.1591ZM308.67 37.1051C309.141 37.1051 309.539 36.9825 309.863 36.7372C310.188 36.4886 310.435 36.1456 310.604 35.7081C310.773 35.2673 310.858 34.7585 310.858 34.1818C310.858 33.6117 310.775 33.1129 310.609 32.6854C310.443 32.2545 310.198 31.9197 309.873 31.6811C309.549 31.4392 309.147 31.3182 308.67 31.3182C308.173 31.3182 307.759 31.4458 307.427 31.701C307.099 31.9529 306.852 32.2959 306.687 32.7301C306.524 33.161 306.443 33.6449 306.443 34.1818C306.443 34.7254 306.526 35.2192 306.692 35.6634C306.861 36.1042 307.109 36.4555 307.437 36.7173C307.769 36.9759 308.18 37.1051 308.67 37.1051ZM316.965 38.1591C316.229 38.1591 315.594 37.9967 315.061 37.6719C314.53 37.3438 314.121 36.8864 313.833 36.2997C313.547 35.7098 313.405 35.0237 313.405 34.2415C313.405 33.4593 313.547 32.7699 313.833 32.1733C314.121 31.5734 314.522 31.1061 315.036 30.7713C315.553 30.4332 316.156 30.2642 316.845 30.2642C317.243 30.2642 317.636 30.3305 318.024 30.4631C318.411 30.5956 318.764 30.8111 319.083 31.1094C319.401 31.4044 319.654 31.7955 319.843 32.2827C320.032 32.7699 320.127 33.3698 320.127 34.0824V34.5795H314.24V33.5653H318.933C318.933 33.1345 318.847 32.75 318.675 32.4119C318.506 32.0739 318.264 31.8071 317.949 31.6115C317.637 31.416 317.27 31.3182 316.845 31.3182C316.378 31.3182 315.974 31.4342 315.632 31.6662C315.294 31.8949 315.034 32.1932 314.852 32.5611C314.669 32.929 314.578 33.3234 314.578 33.7443V34.4205C314.578 34.9972 314.678 35.486 314.877 35.8871C315.079 36.2848 315.359 36.5881 315.717 36.7969C316.075 37.0024 316.491 37.1051 316.965 37.1051C317.273 37.1051 317.551 37.062 317.8 36.9759C318.052 36.8864 318.269 36.7538 318.451 36.5781C318.633 36.3991 318.774 36.1771 318.874 35.9119L320.007 36.2301C319.888 36.6146 319.687 36.9527 319.406 37.2443C319.124 37.5327 318.776 37.758 318.362 37.9205C317.947 38.0795 317.482 38.1591 316.965 38.1591ZM249.885 55V44.8182H253.902C254.674 44.8182 255.332 44.9657 255.876 45.2607C256.419 45.5523 256.834 45.9583 257.119 46.4787C257.407 46.9957 257.551 47.5923 257.551 48.2685C257.551 48.9446 257.405 49.5412 257.114 50.0582C256.822 50.5753 256.399 50.978 255.846 51.2663C255.296 51.5547 254.629 51.6989 253.847 51.6989H251.287V49.9737H253.499C253.914 49.9737 254.255 49.9025 254.523 49.7599C254.795 49.6141 254.997 49.4136 255.13 49.1584C255.266 48.8999 255.334 48.6032 255.334 48.2685C255.334 47.9304 255.266 47.6354 255.13 47.3835C254.997 47.1283 254.795 46.9311 254.523 46.7919C254.252 46.6494 253.907 46.5781 253.489 46.5781H252.038V55H249.885ZM258.35 55V47.3636H260.403V48.696H260.482C260.622 48.2221 260.855 47.8641 261.183 47.6222C261.512 47.3769 261.889 47.2543 262.317 47.2543C262.423 47.2543 262.537 47.2609 262.66 47.2741C262.783 47.2874 262.89 47.3056 262.983 47.3288V49.2081C262.884 49.1783 262.746 49.1518 262.571 49.1286C262.395 49.1054 262.234 49.0938 262.088 49.0938C261.777 49.0938 261.498 49.1617 261.253 49.2976C261.011 49.4302 260.819 49.6158 260.676 49.8544C260.537 50.093 260.468 50.3681 260.468 50.6797V55H258.35ZM266.613 55.1491C265.841 55.1491 265.173 54.9851 264.609 54.657C264.049 54.3255 263.617 53.8648 263.312 53.2749C263.007 52.6816 262.854 51.9938 262.854 51.2116C262.854 50.4228 263.007 49.7334 263.312 49.1435C263.617 48.5502 264.049 48.0895 264.609 47.7614C265.173 47.4299 265.841 47.2642 266.613 47.2642C267.385 47.2642 268.051 47.4299 268.612 47.7614C269.175 48.0895 269.609 48.5502 269.914 49.1435C270.219 49.7334 270.371 50.4228 270.371 51.2116C270.371 51.9938 270.219 52.6816 269.914 53.2749C269.609 53.8648 269.175 54.3255 268.612 54.657C268.051 54.9851 267.385 55.1491 266.613 55.1491ZM266.623 53.5085C266.974 53.5085 267.268 53.4091 267.503 53.2102C267.738 53.008 267.916 52.733 268.035 52.3849C268.157 52.0369 268.219 51.6409 268.219 51.1967C268.219 50.7526 268.157 50.3565 268.035 50.0085C267.916 49.6605 267.738 49.3854 267.503 49.1832C267.268 48.9811 266.974 48.88 266.623 48.88C266.268 48.88 265.97 48.9811 265.728 49.1832C265.489 49.3854 265.309 49.6605 265.186 50.0085C265.067 50.3565 265.007 50.7526 265.007 51.1967C265.007 51.6409 265.067 52.0369 265.186 52.3849C265.309 52.733 265.489 53.008 265.728 53.2102C265.97 53.4091 266.268 53.5085 266.623 53.5085ZM275.25 47.3636V48.9545H270.652V47.3636H275.25ZM271.696 45.5341H273.814V52.6534C273.814 52.849 273.843 53.0014 273.903 53.1108C273.963 53.2169 274.046 53.2914 274.152 53.3345C274.261 53.3776 274.387 53.3991 274.53 53.3991C274.629 53.3991 274.728 53.3909 274.828 53.3743C274.927 53.3544 275.003 53.3395 275.057 53.3295L275.39 54.9055C275.284 54.9387 275.134 54.9768 274.942 55.0199C274.75 55.0663 274.516 55.0945 274.241 55.1044C273.731 55.1243 273.283 55.0563 272.899 54.9006C272.518 54.7448 272.221 54.5028 272.009 54.1747C271.797 53.8466 271.692 53.4323 271.696 52.9318V45.5341ZM279.468 55.1491C278.683 55.1491 278.006 54.9901 277.44 54.6719C276.876 54.3504 276.442 53.8963 276.137 53.3097C275.832 52.7197 275.68 52.022 275.68 51.2166C275.68 50.4311 275.832 49.7417 276.137 49.1484C276.442 48.5552 276.871 48.0928 277.425 47.7614C277.982 47.4299 278.635 47.2642 279.384 47.2642C279.887 47.2642 280.356 47.3454 280.791 47.5078C281.228 47.6669 281.609 47.9072 281.934 48.2287C282.262 48.5502 282.517 48.9545 282.7 49.4418C282.882 49.9257 282.973 50.4924 282.973 51.142V51.7237H276.525V50.4112H280.979C280.979 50.1063 280.913 49.8362 280.781 49.6009C280.648 49.3655 280.464 49.1816 280.229 49.049C279.997 48.9131 279.727 48.8452 279.418 48.8452C279.097 48.8452 278.812 48.9197 278.563 49.0689C278.318 49.2147 278.126 49.4119 277.987 49.6605C277.847 49.9058 277.776 50.1792 277.773 50.4808V51.7287C277.773 52.1065 277.842 52.433 277.982 52.7081C278.124 52.9832 278.325 53.1953 278.583 53.3445C278.842 53.4936 279.148 53.5682 279.503 53.5682C279.738 53.5682 279.954 53.535 280.149 53.4688C280.345 53.4025 280.512 53.303 280.651 53.1705C280.791 53.0379 280.897 52.8755 280.97 52.6832L282.928 52.8125C282.829 53.2831 282.625 53.6941 282.317 54.0455C282.012 54.3935 281.617 54.6652 281.134 54.8608C280.653 55.053 280.098 55.1491 279.468 55.1491ZM287.236 58.0227C286.549 58.0227 285.961 57.9283 285.471 57.7393C284.983 57.5537 284.596 57.3002 284.307 56.9787C284.019 56.6572 283.832 56.2959 283.745 55.8949L285.704 55.6314C285.764 55.7839 285.858 55.9264 285.988 56.0589C286.117 56.1915 286.288 56.2976 286.5 56.3771C286.715 56.46 286.977 56.5014 287.285 56.5014C287.746 56.5014 288.125 56.3887 288.424 56.1634C288.725 55.9413 288.876 55.5684 288.876 55.0447V53.6477H288.787C288.694 53.8598 288.555 54.0604 288.369 54.2493C288.183 54.4382 287.945 54.5923 287.653 54.7116C287.361 54.831 287.013 54.8906 286.609 54.8906C286.036 54.8906 285.514 54.758 285.043 54.4929C284.576 54.2244 284.203 53.8151 283.924 53.2649C283.649 52.7114 283.512 52.0121 283.512 51.1669C283.512 50.3018 283.653 49.5793 283.934 48.9993C284.216 48.4193 284.591 47.9851 285.058 47.6967C285.529 47.4084 286.044 47.2642 286.604 47.2642C287.032 47.2642 287.39 47.3371 287.678 47.483C287.966 47.6255 288.198 47.8045 288.374 48.0199C288.553 48.232 288.691 48.4408 288.787 48.6463H288.866V47.3636H290.969V55.0746C290.969 55.7242 290.81 56.2678 290.492 56.7053C290.174 57.1428 289.733 57.4709 289.169 57.6896C288.609 57.9117 287.965 58.0227 287.236 58.0227ZM287.28 53.2997C287.622 53.2997 287.91 53.2152 288.145 53.0462C288.384 52.8738 288.566 52.6286 288.692 52.3104C288.821 51.9889 288.886 51.6044 288.886 51.157C288.886 50.7095 288.823 50.3217 288.697 49.9936C288.571 49.6622 288.389 49.4053 288.15 49.223C287.912 49.0407 287.622 48.9496 287.28 48.9496C286.932 48.9496 286.639 49.044 286.4 49.233C286.162 49.4186 285.981 49.6771 285.858 50.0085C285.736 50.34 285.674 50.7228 285.674 51.157C285.674 51.5978 285.736 51.9789 285.858 52.3004C285.984 52.6186 286.165 52.8655 286.4 53.0412C286.639 53.2135 286.932 53.2997 287.28 53.2997ZM292.095 55V47.3636H294.212V55H292.095ZM293.158 46.3793C292.844 46.3793 292.573 46.2749 292.348 46.0661C292.126 45.8539 292.015 45.6004 292.015 45.3054C292.015 45.0137 292.126 44.7635 292.348 44.5547C292.573 44.3426 292.844 44.2365 293.158 44.2365C293.473 44.2365 293.742 44.3426 293.964 44.5547C294.189 44.7635 294.302 45.0137 294.302 45.3054C294.302 45.6004 294.189 45.8539 293.964 46.0661C293.742 46.2749 293.473 46.3793 293.158 46.3793ZM298.163 55.1243C297.583 55.1243 297.058 54.9751 296.587 54.6768C296.12 54.3752 295.748 53.9328 295.473 53.3494C295.202 52.7628 295.066 52.0436 295.066 51.1918C295.066 50.3168 295.206 49.5893 295.488 49.0092C295.77 48.4259 296.144 47.9901 296.612 47.7017C297.082 47.41 297.598 47.2642 298.158 47.2642C298.586 47.2642 298.942 47.3371 299.227 47.483C299.515 47.6255 299.747 47.8045 299.923 48.0199C300.102 48.232 300.238 48.4408 300.331 48.6463H300.395V44.8182H302.508V55H300.42V53.777H300.331C300.231 53.9891 300.09 54.1996 299.908 54.4084C299.729 54.6139 299.495 54.7846 299.207 54.9205C298.922 55.0563 298.574 55.1243 298.163 55.1243ZM298.834 53.4389C299.175 53.4389 299.464 53.3461 299.699 53.1605C299.938 52.9716 300.12 52.7081 300.246 52.37C300.375 52.032 300.44 51.6359 300.44 51.1818C300.44 50.7277 300.377 50.3333 300.251 49.9986C300.125 49.6638 299.943 49.4053 299.704 49.223C299.465 49.0407 299.175 48.9496 298.834 48.9496C298.486 48.9496 298.193 49.044 297.954 49.233C297.715 49.4219 297.535 49.6837 297.412 50.0185C297.29 50.3532 297.228 50.741 297.228 51.1818C297.228 51.6259 297.29 52.0187 297.412 52.3601C297.538 52.6982 297.719 52.9633 297.954 53.1555C298.193 53.3445 298.486 53.4389 298.834 53.4389ZM305.867 55.1442C305.38 55.1442 304.946 55.0597 304.564 54.8906C304.183 54.7183 303.882 54.4647 303.66 54.13C303.441 53.7919 303.331 53.371 303.331 52.8672C303.331 52.4429 303.409 52.0866 303.565 51.7983C303.721 51.5099 303.933 51.2779 304.201 51.1023C304.47 50.9266 304.775 50.794 305.116 50.7045C305.461 50.6151 305.822 50.5521 306.2 50.5156C306.644 50.4692 307.002 50.4261 307.274 50.3864C307.546 50.3433 307.743 50.2803 307.866 50.1974C307.988 50.1146 308.049 49.992 308.049 49.8295V49.7997C308.049 49.4848 307.95 49.2412 307.751 49.0689C307.556 48.8965 307.277 48.8104 306.916 48.8104C306.535 48.8104 306.232 48.8949 306.006 49.0639C305.781 49.2296 305.632 49.4384 305.559 49.6903L303.6 49.5312C303.699 49.0672 303.895 48.6662 304.187 48.3281C304.478 47.9867 304.854 47.7249 305.315 47.5426C305.779 47.357 306.316 47.2642 306.926 47.2642C307.35 47.2642 307.756 47.3139 308.144 47.4134C308.535 47.5128 308.881 47.6669 309.183 47.8757C309.488 48.0845 309.728 48.353 309.904 48.6811C310.08 49.0059 310.167 49.3954 310.167 49.8494V55H308.159V53.9411H308.099C307.977 54.1797 307.812 54.3902 307.607 54.5724C307.402 54.7514 307.155 54.8923 306.866 54.995C306.578 55.0945 306.245 55.1442 305.867 55.1442ZM306.473 53.6825C306.785 53.6825 307.06 53.6212 307.299 53.4986C307.537 53.3726 307.725 53.2036 307.861 52.9915C307.996 52.7794 308.064 52.5391 308.064 52.2706V51.4602C307.998 51.5033 307.907 51.5431 307.791 51.5795C307.678 51.6127 307.551 51.6442 307.408 51.674C307.266 51.7005 307.123 51.7254 306.981 51.7486C306.838 51.7685 306.709 51.7867 306.593 51.8033C306.344 51.8397 306.127 51.8977 305.942 51.9773C305.756 52.0568 305.612 52.1645 305.509 52.3004C305.406 52.433 305.355 52.5987 305.355 52.7976C305.355 53.0859 305.459 53.3063 305.668 53.4588C305.88 53.608 306.149 53.6825 306.473 53.6825Z" fill="#02170C"/>
<path d="M58 75H14C10.6863 75 8 77.6863 8 81V105C8 108.314 10.6863 111 14 111H58C61.3137 111 64 108.314 64 105V81C64 77.6863 61.3137 75 58 75Z" fill="#1434CB"/>
<path opacity="0.15" d="M58 75H14C10.686 75 8 77.686 8 81V105C8 108.314 10.686 111 14 111H58C61.314 111 64 108.314 64 105V81C64 77.686 61.314 75 58 75ZM62 105C62 107.206 60.206 109 58 109H14C11.794 109 10 107.206 10 105V81C10 78.794 11.794 77 14 77H58C60.206 77 62 78.794 62 81V105Z" fill="black"/>
<path opacity="0.2" d="M58 77H14C11.79 77 10 78.79 10 81V83C10 80.79 11.79 79 14 79H58C60.21 79 62 80.79 62 83V81C62 78.79 60.21 77 58 77Z" fill="white"/>
<path d="M30.784 86.248L25.108 99.788H21.406L18.612 88.982C18.442 88.318 18.296 88.074 17.78 87.792C16.938 87.334 15.546 86.906 14.324 86.64L14.406 86.248H20.366C21.126 86.248 21.808 86.754 21.982 87.628L23.458 95.464L27.102 86.248H30.784Z" fill="white"/>
<path d="M45.292 95.366C45.308 91.792 40.352 91.594 40.386 89.998C40.396 89.512 40.86 88.996 41.872 88.864C42.374 88.8 43.758 88.748 45.326 89.47L45.94 86.598C45.098 86.294 44.012 86 42.664 86C39.2 86 36.764 87.84 36.746 90.476C36.724 92.426 38.486 93.512 39.812 94.162C41.178 94.826 41.636 95.252 41.63 95.844C41.62 96.752 40.54 97.154 39.536 97.17C37.774 97.198 36.752 96.694 35.938 96.314L35.302 99.282C36.122 99.658 37.632 99.984 39.196 100C42.878 100 45.284 98.182 45.296 95.366" fill="white"/>
<path d="M54.8459 86.248H51.8579C51.1839 86.248 50.6179 86.638 50.3659 87.24L45.1099 99.788H48.7879L49.5179 97.766H54.0119L54.4359 99.788H57.6759L54.8459 86.248ZM50.5259 94.992L52.3699 89.908L53.4299 94.992H50.5259Z" fill="white"/>
<path d="M35.7881 86.248L32.8921 99.788H29.3901L32.2861 86.248H35.7881Z" fill="white"/>
<path d="M99.4849 76H143.645C146.406 76.0001 148.645 78.2386 148.645 81V105C148.645 107.761 146.406 110 143.645 110H99.4849C96.7234 110 94.4849 107.761 94.4849 105V81C94.4849 78.2386 96.7234 76 99.4849 76Z" fill="#D9D9D9" stroke="#B7B7B7" stroke-width="2"/>
<path d="M118.072 102.268L100.341 102.275V102.232C100.341 102.208 100.37 102.056 100.404 101.894C100.439 101.731 100.492 101.473 100.524 101.319C100.555 101.166 100.608 100.905 100.642 100.74C100.725 100.336 100.807 99.9317 100.889 99.5274C100.921 99.368 100.974 99.1072 101.007 98.948C101.05 98.7442 101.092 98.5403 101.133 98.3364C101.169 98.1594 101.224 97.8889 101.255 97.7354C101.286 97.5819 101.335 97.3454 101.364 97.2097C101.393 97.074 101.43 96.8905 101.447 96.8019C101.463 96.7134 101.516 96.4526 101.564 96.2225C101.604 96.0296 101.643 95.8365 101.682 95.6431C101.698 95.5546 101.752 95.2938 101.8 95.0637C101.848 94.8336 101.901 94.5729 101.918 94.4843C101.935 94.3958 101.988 94.135 102.037 93.9049C102.085 93.6747 102.138 93.4189 102.153 93.3363C102.169 93.2537 102.212 93.0412 102.248 92.8642C102.285 92.6871 102.354 92.3539 102.402 92.1238C102.45 91.8936 102.531 91.4929 102.584 91.2331C102.636 90.9735 102.698 90.6645 102.722 90.5464C102.793 90.1994 102.864 89.8524 102.937 89.5057C102.972 89.3344 103.03 89.0544 103.065 88.8832C103.1 88.7121 103.154 88.4465 103.185 88.2931C103.216 88.1397 103.269 87.8838 103.303 87.7244C103.336 87.5651 103.394 87.285 103.431 87.1021C103.469 86.9191 103.531 86.6391 103.57 86.4797C103.609 86.3204 103.663 86.1272 103.692 86.0506C103.72 85.9738 103.798 85.8076 103.865 85.6809L103.988 85.4509L104.099 85.3054C104.16 85.2254 104.269 85.099 104.341 85.0245C104.413 84.95 104.535 84.8379 104.612 84.7754C104.689 84.7128 104.8 84.6284 104.859 84.5878C104.918 84.5472 105.034 84.4761 105.116 84.4298C105.199 84.3835 105.315 84.3229 105.374 84.2952C105.433 84.2674 105.553 84.2166 105.642 84.1823C105.73 84.1482 105.899 84.0908 106.017 84.055C106.135 84.0191 106.357 83.965 106.51 83.9349C106.663 83.9047 106.904 83.8643 107.046 83.8452L107.305 83.8104L125.047 83.8037L142.79 83.7969V83.8396C142.79 83.863 142.761 84.0152 142.726 84.1777C142.683 84.3833 142.639 84.5891 142.597 84.7951C142.561 84.9721 142.508 85.2281 142.48 85.3638C142.439 85.5569 142.399 85.75 142.36 85.9432C142.323 86.1262 142.265 86.4063 142.232 86.5655C142.199 86.7249 142.146 86.9857 142.114 87.145C142.082 87.3044 142.028 87.5651 141.995 87.7244C141.956 87.9102 141.918 88.0963 141.88 88.2824C141.85 88.4299 141.797 88.6955 141.76 88.8725C141.724 89.0495 141.666 89.3296 141.632 89.4949C141.597 89.6601 141.544 89.916 141.514 90.0636C141.484 90.2111 141.43 90.4766 141.394 90.6536C141.358 90.8307 141.3 91.1108 141.265 91.2761C141.23 91.4413 141.179 91.6924 141.15 91.834C141.071 92.2275 140.991 92.621 140.91 93.0144C140.881 93.1559 140.829 93.4071 140.795 93.5723C140.751 93.7832 140.708 93.9942 140.665 94.2053C140.627 94.3883 140.574 94.649 140.546 94.7848C140.518 94.9205 140.465 95.1763 140.429 95.3534C140.387 95.5609 140.344 95.7683 140.302 95.9757C140.267 96.141 140.214 96.4018 140.183 96.5553C140.151 96.7087 140.097 96.9743 140.062 97.1453C140.027 97.3165 139.969 97.5965 139.934 97.7677C139.899 97.9388 139.847 98.1948 139.818 98.3364C139.778 98.5294 139.739 98.7226 139.699 98.9158C139.657 99.1226 139.614 99.3293 139.569 99.5358L139.505 99.8338L139.428 100.04C139.385 100.153 139.322 100.304 139.286 100.375C139.251 100.446 139.179 100.571 139.126 100.653C139.073 100.735 138.999 100.839 138.962 100.886C138.925 100.932 138.813 101.052 138.714 101.152L138.533 101.333L138.359 101.457C138.263 101.525 138.159 101.595 138.129 101.611C138.099 101.628 137.984 101.687 137.873 101.742C137.762 101.797 137.606 101.868 137.525 101.899C137.445 101.93 137.285 101.982 137.171 102.015C137.057 102.049 136.934 102.081 136.899 102.088C136.863 102.095 136.74 102.12 136.626 102.145C136.511 102.169 136.279 102.205 136.111 102.225L135.804 102.262L118.073 102.268H118.072ZM111.764 97.6818H112.226L112.239 97.6478C112.246 97.6291 112.252 97.5852 112.252 97.5503C112.252 97.5153 112.267 97.3882 112.285 97.2678C112.304 97.1472 112.348 96.8701 112.382 96.6517C112.417 96.4333 112.469 96.105 112.498 95.9221C112.525 95.7488 112.551 95.5753 112.576 95.4016C112.59 95.2984 112.608 95.2139 112.615 95.2139C112.622 95.2139 112.651 95.2595 112.681 95.3153L112.734 95.4167L112.853 95.5367L112.972 95.6565L113.119 95.7152L113.265 95.7738L113.44 95.7964L113.614 95.819L113.836 95.8054L114.057 95.7918L114.297 95.7297L114.537 95.6676L114.666 95.6089C114.737 95.5766 114.862 95.506 114.945 95.4523L115.095 95.3544L115.235 95.2144C115.312 95.1375 115.421 95.014 115.477 94.94C115.532 94.8662 115.578 94.8003 115.578 94.7937C115.578 94.7872 115.605 94.7414 115.639 94.692C115.672 94.6427 115.741 94.5056 115.791 94.3876C115.841 94.2696 115.92 94.0572 115.966 93.9155L116.049 93.658L116.092 93.435C116.115 93.3123 116.146 93.1095 116.159 92.9843L116.184 92.7567L116.17 92.5635L116.156 92.3704L116.111 92.1773L116.066 91.9841L115.993 91.8396L115.921 91.6949L115.781 91.5465L115.641 91.3981L115.475 91.3125L115.31 91.2269L115.127 91.1831L114.945 91.1395L114.762 91.1261L114.58 91.1127L114.377 91.136L114.174 91.1594L114.008 91.2018L113.842 91.2442L113.698 91.3109C113.619 91.3475 113.503 91.4098 113.442 91.4492C113.38 91.4888 113.316 91.5341 113.3 91.5501C113.284 91.5661 113.246 91.5959 113.215 91.6161L113.158 91.653L113.198 91.4645C113.219 91.3608 113.237 91.264 113.238 91.2491L113.239 91.2223H112.452L112.383 91.6568C112.345 91.8959 112.285 92.2653 112.25 92.4778C112.172 92.9465 112.093 93.415 112.014 93.8834C111.979 94.0899 111.921 94.4183 111.885 94.613C111.849 94.8078 111.796 95.0927 111.768 95.2461C111.74 95.3995 111.686 95.6892 111.65 95.8898C111.606 96.126 111.563 96.3621 111.518 96.598C111.476 96.8199 111.434 97.0417 111.39 97.2633C111.355 97.4402 111.321 97.6069 111.314 97.6334L111.303 97.6817H111.764V97.6818ZM113.751 95.2006L113.571 95.2114L113.454 95.1906L113.337 95.17L113.218 95.1157L113.099 95.0614L113.016 94.982L112.933 94.9028L112.885 94.7955C112.859 94.7364 112.825 94.6362 112.81 94.5726L112.782 94.4571L112.793 94.2722L112.804 94.0873L112.86 93.7975C112.901 93.5761 112.942 93.3543 112.981 93.1323C113.017 92.9257 113.072 92.6231 113.103 92.4597L113.159 92.1627L113.282 92.0603C113.35 92.0041 113.457 91.9286 113.521 91.8927L113.636 91.8273L113.786 91.7809L113.936 91.7343L114.129 91.7229L114.322 91.7116L114.48 91.7452L114.637 91.7786L114.748 91.8297L114.859 91.8809L114.952 91.9744L115.045 92.068L115.095 92.1671C115.123 92.2216 115.162 92.3283 115.182 92.4041L115.217 92.5421L115.206 92.9499L115.195 93.3577L115.14 93.5987C115.11 93.7313 115.052 93.934 115.012 94.0493L114.939 94.259L114.849 94.4287C114.8 94.5221 114.724 94.6482 114.681 94.7089C114.637 94.7697 114.568 94.8487 114.526 94.8841C114.476 94.9266 114.425 94.9677 114.373 95.0073L114.294 95.066L114.112 95.1279L113.93 95.1899L113.751 95.2006ZM118.207 95.7906L118.443 95.7933L118.679 95.7718C118.809 95.7599 119.021 95.7353 119.151 95.7169C119.281 95.6986 119.505 95.6577 119.649 95.626L119.912 95.5682L119.925 95.4715C119.932 95.4184 119.962 95.26 119.99 95.1197L120.043 94.8644L120.031 94.8529L120.02 94.8413L119.939 94.88C119.895 94.9013 119.758 94.9521 119.634 94.9929L119.409 95.067L119.173 95.1128L118.936 95.1586L118.561 95.1594L118.185 95.1601L118.057 95.119C117.986 95.0964 117.882 95.055 117.825 95.027L117.722 94.9762L117.638 94.8997L117.553 94.823L117.487 94.7075L117.421 94.5919L117.379 94.4469L117.338 94.3019L117.337 94.0336L117.337 93.7652L117.374 93.5259L117.411 93.2865L117.734 93.2714L118.057 93.2563L119.25 93.2641L120.444 93.2717L120.48 93.1188C120.5 93.0347 120.53 92.8609 120.548 92.7325L120.579 92.4991L120.58 92.3028L120.58 92.1065L120.546 91.9599L120.512 91.8133L120.456 91.7164C120.425 91.663 120.371 91.5857 120.335 91.5445C120.299 91.5033 120.236 91.4452 120.194 91.4155C120.151 91.3858 120.069 91.3357 120.01 91.3043L119.902 91.2472L119.715 91.2021L119.527 91.157L119.296 91.1349L119.065 91.1128L118.851 91.1268L118.636 91.1407L118.379 91.1903L118.121 91.2398L117.96 91.3041C117.872 91.3393 117.736 91.404 117.66 91.4475C117.583 91.491 117.477 91.5618 117.424 91.6047C117.371 91.6478 117.279 91.7315 117.219 91.7908C117.16 91.85 117.072 91.9564 117.025 92.0271C116.977 92.0981 116.903 92.2236 116.861 92.3061C116.819 92.3888 116.765 92.5047 116.74 92.5637C116.715 92.6226 116.67 92.7434 116.64 92.8319C116.61 92.9205 116.562 93.0894 116.534 93.2075C116.502 93.3505 116.473 93.4944 116.449 93.6392L116.415 93.8564L116.415 94.1758L116.416 94.4951L116.448 94.6346C116.466 94.7113 116.501 94.8272 116.525 94.8921C116.548 94.957 116.593 95.0536 116.623 95.1067C116.653 95.1599 116.718 95.2453 116.767 95.2968C116.815 95.3481 116.903 95.4262 116.962 95.4701C117.021 95.514 117.126 95.5758 117.196 95.6074L117.322 95.6648L117.498 95.7074C117.595 95.7308 117.741 95.7585 117.822 95.769C117.904 95.7793 118.077 95.7892 118.207 95.7906ZM118.611 92.7674C118.017 92.7674 117.531 92.7632 117.531 92.758C117.531 92.7528 117.556 92.678 117.587 92.5916C117.618 92.5054 117.673 92.377 117.708 92.3064L117.773 92.1779L117.915 92.0367L118.057 91.8955L118.196 91.8288C118.273 91.7921 118.374 91.7522 118.421 91.74C118.469 91.7279 118.604 91.7118 118.722 91.7043L118.936 91.6905L119.101 91.7117L119.266 91.7329L119.386 91.7877L119.506 91.8426L119.571 91.9135C119.607 91.9524 119.65 92.0098 119.667 92.0409L119.697 92.0976L119.717 92.2234L119.737 92.3491L119.714 92.5583L119.691 92.7676H118.611V92.7674ZM125.031 95.7907L125.267 95.7933L125.535 95.7615C125.683 95.744 125.879 95.7151 125.972 95.6971C126.084 95.6746 126.194 95.6482 126.304 95.6182C126.395 95.5926 126.477 95.5649 126.486 95.5567C126.496 95.5485 126.521 95.4512 126.543 95.3403C126.565 95.2295 126.592 95.0809 126.604 95.0101C126.615 94.9392 126.621 94.8775 126.617 94.8729C126.613 94.8682 126.597 94.8742 126.582 94.8861C126.567 94.8981 126.462 94.9424 126.348 94.9846L126.141 95.0614L125.847 95.1184L125.553 95.1753L125.303 95.1669L125.052 95.1583L124.91 95.1089L124.768 95.0596L124.658 94.9636L124.549 94.8675L124.476 94.7348L124.403 94.6022L124.368 94.4247L124.333 94.2472L124.334 94.017L124.334 93.7867L124.376 93.5077L124.418 93.2287L124.463 93.0784C124.487 92.9958 124.515 92.8993 124.525 92.8639C124.534 92.8284 124.573 92.727 124.612 92.6384C124.651 92.5499 124.72 92.4131 124.765 92.3345L124.849 92.1914L124.951 92.0856L125.053 91.9799L125.161 91.9129L125.269 91.8459L125.407 91.8031C125.484 91.7797 125.619 91.7491 125.707 91.7354L125.868 91.7103L126.104 91.7221L126.34 91.734L126.619 91.7898L126.898 91.8455L127.012 91.8879C127.074 91.9111 127.128 91.9303 127.131 91.9303C127.134 91.9303 127.149 91.8506 127.164 91.7532C127.179 91.6559 127.206 91.4956 127.224 91.3973C127.241 91.2987 127.251 91.214 127.246 91.2088C127.241 91.2036 127.157 91.1903 127.06 91.1792C126.962 91.1682 126.698 91.1485 126.472 91.1354L126.061 91.1118L125.771 91.134L125.482 91.1563L125.267 91.2013L125.052 91.2464L124.914 91.3017C124.838 91.3321 124.727 91.387 124.667 91.4237C124.609 91.4587 124.553 91.4952 124.497 91.5332C124.464 91.5568 124.362 91.6489 124.272 91.738L124.108 91.8997L124.016 92.0341C123.965 92.108 123.878 92.2622 123.822 92.3767L123.72 92.5848L123.641 92.8101C123.598 92.934 123.538 93.1368 123.507 93.2608L123.452 93.4861L123.432 93.69L123.412 93.8939L123.412 94.1621L123.412 94.4303L123.433 94.5864L123.453 94.7425L123.517 94.903L123.581 95.0635L123.656 95.1796L123.73 95.2956L123.848 95.4118L123.966 95.5279L124.091 95.594L124.216 95.6599L124.38 95.7056C124.47 95.7306 124.6 95.7593 124.67 95.7694C124.739 95.7795 124.901 95.789 125.031 95.7904H125.031V95.7907ZM128.561 95.7828L128.851 95.7744L129.033 95.7278L129.216 95.681L129.334 95.6253C129.399 95.5947 129.505 95.534 129.57 95.4906C129.635 95.4473 129.735 95.3649 129.793 95.3075C129.851 95.2501 129.937 95.1522 129.984 95.0899C130.031 95.0276 130.072 94.9795 130.076 94.983C130.079 94.9864 130.068 95.0856 130.052 95.2034C130.035 95.3213 130.021 95.478 130.021 95.5518L130.02 95.6859H130.808L130.82 95.3802L130.832 95.0744L130.888 94.6773C130.919 94.4589 130.969 94.1354 130.999 93.9584C131.029 93.7814 131.082 93.4821 131.116 93.2932C131.149 93.1043 131.203 92.8098 131.235 92.6386L131.292 92.3275L131.294 92.0587L131.296 91.7899L131.236 91.6657L131.175 91.5414L131.092 91.4624L131.01 91.3832L130.875 91.3148L130.739 91.2462L130.538 91.2013L130.336 91.1563L130.058 91.1353L129.781 91.1141L129.423 91.1363C129.226 91.1484 128.95 91.1724 128.808 91.1896L128.55 91.2209L128.375 91.2216L128.199 91.2222L128.174 91.3457C128.16 91.4135 128.121 91.5747 128.087 91.704C128.053 91.8332 128.029 91.9421 128.033 91.9458C128.037 91.9496 128.131 91.9283 128.241 91.8985C128.352 91.8686 128.588 91.8196 128.765 91.7893L129.087 91.7345L129.377 91.7226L129.666 91.7107L129.853 91.7434L130.04 91.7761L130.164 91.8375L130.289 91.8991L130.359 92.003L130.428 92.107L130.427 92.2708L130.426 92.4347L130.389 92.6145L130.352 92.7944L129.58 92.7972L128.808 92.7999L128.555 92.8692C128.416 92.9073 128.262 92.9579 128.213 92.9816C128.164 93.0054 128.115 93.0248 128.104 93.0248C128.093 93.0248 128.01 93.0705 127.92 93.1267L127.756 93.2285L127.627 93.3573C127.556 93.4282 127.466 93.5344 127.426 93.5935C127.386 93.6524 127.321 93.7757 127.282 93.8674L127.211 94.0341L127.178 94.2214L127.145 94.4088V94.8021L127.176 94.9658L127.208 95.1296L127.266 95.2363C127.298 95.295 127.356 95.381 127.396 95.4275L127.468 95.5119L127.597 95.5898L127.725 95.6679L127.872 95.7093C127.953 95.7322 128.076 95.7599 128.145 95.771L128.272 95.7908L128.561 95.7825H128.561V95.7828ZM128.829 95.1826L128.658 95.1916L128.544 95.1626C128.482 95.1467 128.387 95.1112 128.333 95.0838L128.236 95.0338L128.183 94.9707C128.154 94.9359 128.109 94.8679 128.084 94.8193L128.038 94.731L128.029 94.5247L128.02 94.3184L128.056 94.1933C128.076 94.1245 128.123 94.005 128.161 93.9279L128.229 93.7876L128.359 93.6584L128.489 93.5292L128.627 93.4627L128.765 93.3963L128.937 93.3555L129.108 93.3146H130.182L130.216 93.3287L130.249 93.3427L130.221 93.5112C130.205 93.6038 130.168 93.7713 130.138 93.8834C130.108 93.9956 130.054 94.1604 130.02 94.2497C129.985 94.3391 129.956 94.4181 129.956 94.4252C129.956 94.4325 129.921 94.4975 129.878 94.5699L129.799 94.7015L129.671 94.8291C129.6 94.8991 129.534 94.9565 129.525 94.9565C129.515 94.9565 129.472 94.9807 129.428 95.0102L129.349 95.0638L129.175 95.1189L129.001 95.1739L128.829 95.1826ZM135.815 95.7904L136.019 95.793L136.212 95.7616C136.318 95.7444 136.453 95.7166 136.512 95.6999C136.571 95.6832 136.677 95.6399 136.748 95.6036L136.877 95.5377L136.988 95.4401L137.098 95.3426L137.215 95.1871C137.279 95.1015 137.337 95.0171 137.344 94.9993L137.357 94.967L137.346 95.0744C137.338 95.1462 137.328 95.2177 137.316 95.289C137.306 95.348 137.291 95.4615 137.283 95.5411L137.269 95.6859H138.111V95.3963L138.175 94.849C138.21 94.548 138.263 94.1473 138.291 93.9584C138.319 93.7694 138.363 93.4992 138.389 93.3576C138.414 93.2159 138.459 92.9599 138.488 92.7889C138.518 92.6178 138.571 92.3183 138.606 92.1236C138.642 91.9288 138.698 91.6198 138.732 91.4369C138.766 91.2539 138.819 90.969 138.85 90.8038C138.88 90.6386 138.935 90.3488 138.971 90.16C139.009 89.963 139.049 89.7663 139.089 89.5699C139.118 89.4342 139.141 89.3158 139.141 89.307V89.2908H138.222L138.209 89.425C138.201 89.4988 138.166 89.7426 138.131 89.9669C138.089 90.2317 138.046 90.4964 138.002 90.7609C137.977 90.9135 137.952 91.0661 137.927 91.2187L137.915 91.2902L137.879 91.2748C137.859 91.2664 137.751 91.2364 137.639 91.2082L137.435 91.157L137.156 91.1352L136.877 91.1135L136.641 91.1354L136.405 91.1575L136.19 91.2117L135.976 91.2659L135.772 91.3654L135.568 91.4648L135.418 91.5759L135.267 91.6871L135.138 91.8263C135.066 91.9028 134.963 92.0294 134.909 92.1075L134.809 92.2496L134.693 92.4923C134.628 92.6259 134.55 92.8027 134.519 92.8853C134.488 92.9679 134.433 93.1511 134.397 93.2923L134.331 93.5491L134.299 93.8825L134.266 94.2159L134.29 94.4841L134.315 94.7524L134.344 94.8489C134.359 94.902 134.393 94.9967 134.418 95.0591L134.463 95.173L134.545 95.2848L134.628 95.3966L134.722 95.4739L134.817 95.5512L134.945 95.6151C135.016 95.6502 135.135 95.6957 135.21 95.7161C135.284 95.7364 135.405 95.7609 135.478 95.7704C135.551 95.7801 135.703 95.789 135.815 95.7904ZM136.181 95.1817L136.019 95.1901L135.909 95.1705C135.849 95.1597 135.753 95.1306 135.695 95.106L135.591 95.0612L135.503 94.9891L135.415 94.917L135.35 94.7919L135.284 94.6667L135.254 94.5273L135.225 94.3877L135.227 94.1087L135.23 93.8298L135.264 93.5829L135.299 93.3362L135.353 93.1646C135.382 93.0702 135.407 92.981 135.407 92.9665C135.407 92.9522 135.436 92.8749 135.472 92.795C135.513 92.7025 135.557 92.611 135.603 92.5208C135.641 92.4499 135.71 92.3396 135.757 92.2754C135.805 92.2114 135.889 92.1148 135.945 92.0608C136.001 92.007 136.09 91.9361 136.143 91.9036L136.239 91.8445L136.408 91.7862L136.577 91.7278L136.931 91.7276H137.285L137.489 91.7842C137.601 91.8153 137.72 91.8513 137.753 91.8643L137.814 91.888L137.802 91.9468C137.796 91.9793 137.77 92.1216 137.746 92.2632C137.721 92.4049 137.672 92.6753 137.638 92.8642C137.603 93.053 137.549 93.3379 137.519 93.4972C137.489 93.6565 137.444 93.8594 137.421 93.9478C137.397 94.0388 137.372 94.1296 137.347 94.2203C137.33 94.2816 137.29 94.3879 137.257 94.4563C137.225 94.5248 137.168 94.6243 137.131 94.6774C137.094 94.7305 137.031 94.8042 136.992 94.8409C136.952 94.8778 136.867 94.9432 136.802 94.9863L136.684 95.0648L136.514 95.119L136.343 95.1731L136.181 95.1817ZM104.597 95.6859H105.119L105.156 95.4553C105.177 95.3284 105.217 95.0845 105.245 94.9134L105.363 94.2052C105.4 93.9868 105.454 93.6633 105.485 93.4863C105.515 93.3093 105.563 93.0347 105.591 92.8761C105.62 92.7174 105.649 92.5822 105.655 92.5756L105.667 92.5636H108.471L108.487 92.5792L108.503 92.5948L108.478 92.7187C108.465 92.7869 108.425 92.997 108.39 93.186C108.355 93.3748 108.297 93.6935 108.26 93.8942C108.221 94.1053 108.181 94.3163 108.141 94.5272C108.113 94.6747 108.056 94.9837 108.014 95.2139C107.972 95.444 107.938 95.6444 107.938 95.6592L107.939 95.686H108.986L109.009 95.552C109.022 95.4782 109.042 95.3454 109.054 95.2568C109.067 95.1683 109.096 94.9799 109.12 94.8383C109.144 94.6967 109.192 94.4166 109.227 94.216C109.261 94.0154 109.319 93.6725 109.355 93.4541C109.392 93.2357 109.445 92.917 109.475 92.746C109.512 92.5311 109.551 92.3165 109.591 92.1022C109.625 91.9192 109.683 91.6102 109.719 91.4154C109.755 91.2207 109.809 90.9262 109.838 90.7609C109.868 90.5956 109.923 90.2962 109.959 90.0956C109.996 89.895 110.042 89.6609 110.062 89.5752L110.098 89.4196H109.038L109.023 89.5216C109.016 89.5775 108.99 89.7345 108.967 89.8703C108.943 90.006 108.901 90.2474 108.872 90.4068C108.843 90.5662 108.791 90.8703 108.756 91.0828C108.721 91.2909 108.688 91.4992 108.656 91.7078L108.62 91.9465L107.842 91.9622L107.064 91.978L106.412 91.9625C106.054 91.954 105.758 91.9453 105.756 91.9433C105.754 91.9412 105.766 91.8578 105.783 91.758C105.806 91.6292 105.83 91.5007 105.856 91.3725C105.889 91.2081 105.921 91.0436 105.952 90.8788C105.982 90.7195 106.016 90.5216 106.027 90.4389C106.039 90.3564 106.063 90.2187 106.081 90.1331C106.099 90.0476 106.133 89.8673 106.157 89.7326C106.181 89.5978 106.206 89.4723 106.213 89.4537L106.226 89.4196H105.175L105.141 89.6074C105.122 89.7107 105.098 89.8579 105.086 89.9346C105.074 90.0113 105.035 90.2576 104.999 90.4818C104.963 90.7061 104.909 91.0393 104.88 91.2222L104.762 91.9625C104.721 92.2205 104.677 92.478 104.632 92.7351C104.593 92.9462 104.554 93.1572 104.515 93.3681C104.487 93.5157 104.434 93.7957 104.397 93.9905C104.358 94.1946 104.317 94.3985 104.276 94.6022C104.247 94.7438 104.215 94.908 104.205 94.967C104.195 95.026 104.161 95.1963 104.131 95.3453C104.101 95.4942 104.076 95.6319 104.076 95.651V95.6858H104.597V95.6859ZM110.369 95.6859H110.831L110.844 95.652C110.851 95.6333 110.857 95.5843 110.857 95.5432C110.857 95.502 110.886 95.2879 110.922 95.0675C111.003 94.5651 111.086 94.0631 111.171 93.5614C111.207 93.35 111.245 93.139 111.286 92.9283C111.32 92.7514 111.372 92.476 111.402 92.3168C111.432 92.1575 111.491 91.8543 111.533 91.643C111.575 91.4319 111.615 91.2507 111.621 91.2403L111.633 91.2214L111.166 91.2272L110.699 91.233L110.66 91.512C110.639 91.6654 110.592 91.9697 110.556 92.188C110.521 92.4063 110.467 92.7396 110.436 92.9283C110.399 93.1541 110.36 93.3795 110.319 93.6044C110.284 93.7873 110.232 94.0673 110.202 94.2267C110.172 94.3861 110.118 94.6662 110.082 94.8491C110.046 95.0321 109.998 95.2735 109.976 95.3856C109.953 95.4978 109.928 95.6112 109.921 95.6378L109.908 95.686H110.369V95.6859ZM121.165 95.6859H121.624L121.637 95.4921C121.645 95.3855 121.671 95.1706 121.695 95.0146C121.719 94.8586 121.769 94.5475 121.805 94.3233C121.851 94.0461 121.9 93.7695 121.954 93.4937C122.001 93.2618 122.053 93.0312 122.07 92.9814C122.088 92.9316 122.102 92.8775 122.102 92.8614C122.102 92.8452 122.137 92.7571 122.179 92.6656C122.221 92.5741 122.299 92.434 122.353 92.3542L122.451 92.2091L122.582 92.0879L122.713 91.9667L122.874 91.8896L123.036 91.8124L123.282 91.8137L123.529 91.815L123.65 91.8512C123.717 91.8711 123.777 91.8875 123.784 91.8875C123.792 91.8875 123.797 91.8647 123.797 91.8368C123.797 91.809 123.821 91.6677 123.851 91.5227C123.88 91.3779 123.905 91.2533 123.905 91.2458C123.905 91.2383 123.835 91.2109 123.749 91.1849C123.663 91.1589 123.545 91.1317 123.486 91.1243L123.379 91.111L123.239 91.1357C123.163 91.1493 123.049 91.1792 122.986 91.2023C122.923 91.2253 122.82 91.2776 122.756 91.3184C122.692 91.3593 122.593 91.4388 122.535 91.4952C122.478 91.5516 122.381 91.6654 122.32 91.7481C122.273 91.8122 122.226 91.8767 122.179 91.9412L122.148 91.9841L122.167 91.8982C122.177 91.851 122.206 91.6965 122.23 91.5549C122.255 91.4132 122.28 91.2804 122.286 91.2598L122.298 91.2222H121.48V91.274C121.48 91.3024 121.455 91.4738 121.426 91.6548C121.396 91.836 121.348 92.1385 121.318 92.3274C121.288 92.5163 121.235 92.8446 121.2 93.0571C121.162 93.2827 121.123 93.5081 121.081 93.733C121.001 94.1626 120.918 94.5918 120.833 95.0206C120.797 95.2036 120.754 95.4196 120.737 95.5008C120.721 95.5819 120.707 95.6567 120.707 95.6671V95.6859H121.165ZM132.042 95.6859H132.51V95.3992L132.564 95.0436C132.594 94.8481 132.643 94.5383 132.673 94.3555C132.703 94.1725 132.741 93.9408 132.757 93.8404C132.773 93.7401 132.814 93.5228 132.85 93.3576C132.885 93.1923 132.929 93.0137 132.948 92.9606C132.967 92.9075 132.982 92.8517 132.982 92.8367C132.982 92.8217 133.022 92.7253 133.071 92.6225L133.159 92.4354L133.276 92.2804L133.393 92.1254L133.52 92.0294C133.591 91.9766 133.703 91.9067 133.771 91.8737L133.895 91.814L134.163 91.8158L134.431 91.8177L134.537 91.8516L134.642 91.8856L134.66 91.8745L134.678 91.8635L134.679 91.795C134.679 91.7574 134.702 91.6172 134.73 91.4836L134.78 91.2406L134.724 91.2186C134.669 91.1986 134.615 91.18 134.56 91.1628L134.453 91.1289L134.259 91.1295L134.066 91.13L133.909 91.1854L133.751 91.2408L133.633 91.312L133.515 91.3833L133.361 91.5443L133.208 91.7052L133.125 91.8301C133.08 91.8987 133.04 91.9519 133.036 91.9481C133.033 91.9444 133.058 91.8013 133.091 91.6302C133.125 91.4589 133.153 91.2972 133.153 91.2706L133.154 91.2223H132.36V91.236C132.36 91.2435 132.341 91.3812 132.316 91.5418C132.292 91.7026 132.243 92.0126 132.208 92.231C132.166 92.4922 132.123 92.7533 132.08 93.0143C132.043 93.2399 132.003 93.4653 131.962 93.6903C131.932 93.8496 131.879 94.1297 131.844 94.3126C131.809 94.4956 131.752 94.7902 131.717 94.9672L131.613 95.4875L131.574 95.686H132.042V95.6859ZM111.277 90.4493L111.407 90.4498L111.511 90.4145L111.615 90.3792L111.706 90.2862L111.798 90.1933L111.846 90.0693L111.895 89.9454L111.896 89.763L111.898 89.5807L111.855 89.5095L111.812 89.4382L111.737 89.3921L111.663 89.3458H111.34L111.23 89.395L111.12 89.4441L111.057 89.5124L110.993 89.5807L110.943 89.6988L110.893 89.8167L110.883 90.0006L110.874 90.1844L110.92 90.2759L110.967 90.3672L111.057 90.4081L111.147 90.4488L111.277 90.4493Z" fill="#B3131B"/>
<path opacity="0.6" d="M143.565 76.9097H99.5654C97.3554 76.9097 95.5654 78.6997 95.5654 80.9097V82.9097C95.5654 80.6997 97.3554 78.9097 99.5654 78.9097H143.565C145.775 78.9097 147.565 80.6997 147.565 82.9097V80.9097C147.565 78.6997 145.775 76.9097 143.565 76.9097Z" fill="white"/>
<path d="M185.13 76H229.515C232.276 76 234.515 78.2386 234.515 81V105C234.515 107.761 232.276 110 229.515 110H185.13C182.368 110 180.13 107.761 180.13 105V81C180.13 78.2386 182.368 76 185.13 76Z" fill="#171717" stroke="black" stroke-width="2"/>
<path d="M192.329 88.6181C192.787 88.4631 193.279 88.3823 193.791 88.3823C196.027 88.3823 197.893 89.9721 198.317 92.0804L201.483 91.4337C200.756 87.8502 197.59 85.1489 193.791 85.1489C192.922 85.1489 192.087 85.2905 191.305 85.5531L192.329 88.6181Z" fill="#FFF100"/>
<path d="M188.59 98.8836L190.732 96.4587C189.776 95.6099 189.176 94.3772 189.176 92.9963C189.176 91.6222 189.776 90.3827 190.732 89.5407L188.59 87.1226C186.967 88.564 185.943 90.659 185.943 93.0031C185.943 95.3405 186.967 97.4421 188.59 98.8836Z" fill="#00A3DF"/>
<path d="M198.317 93.9258C197.886 96.0342 196.027 97.6171 193.791 97.6171C193.279 97.6171 192.787 97.5363 192.322 97.3814L191.298 100.446C192.08 100.709 192.922 100.85 193.791 100.85C197.59 100.85 200.756 98.156 201.483 94.5724L198.317 93.9258Z" fill="#EE4023"/>
<path d="M212.032 96.0952C211.507 96.6072 210.799 96.917 210.018 96.9035C209.479 96.8967 208.981 96.7351 208.563 96.4656L207.512 98.1362C208.233 98.5875 209.075 98.8569 209.991 98.8704C211.318 98.8906 212.53 98.3652 213.413 97.5097L212.032 96.0952ZM210.132 89.285C207.492 89.2446 205.309 91.3597 205.269 94.0002C205.256 94.9904 205.538 95.92 206.044 96.6879L214.72 92.9763C214.235 90.8949 212.376 89.3253 210.132 89.285ZM207.256 94.3774C207.243 94.2696 207.236 94.1551 207.236 94.0406C207.263 92.4846 208.543 91.2384 210.099 91.2654C210.948 91.2788 211.702 91.6628 212.207 92.269L207.256 94.3774ZM217.448 87.1294V96.378L219.051 97.0449L218.29 98.8703L216.7 98.2102C216.343 98.0553 216.101 97.8195 215.919 97.5501C215.744 97.2806 215.609 96.9033 215.609 96.4049V87.1294H217.448ZM223.234 91.4068C223.517 91.3125 223.813 91.2653 224.13 91.2653C225.497 91.2653 226.629 92.2353 226.892 93.5219L228.825 93.1245C228.38 90.9353 226.447 89.2917 224.13 89.2917C223.598 89.2917 223.086 89.3793 222.614 89.5342L223.234 91.4068ZM220.951 97.6646L222.257 96.1894C221.671 95.6707 221.308 94.9163 221.308 94.0743C221.308 93.2323 221.678 92.4779 222.257 91.9659L220.951 90.4908C219.96 91.3664 219.334 92.653 219.334 94.0811C219.334 95.5091 219.96 96.7889 220.951 97.6646ZM226.892 94.6468C226.629 95.9334 225.491 96.9033 224.13 96.9033C223.82 96.9033 223.517 96.8495 223.234 96.7552L222.608 98.6278C223.086 98.7894 223.598 98.8771 224.13 98.8771C226.447 98.8771 228.381 97.2335 228.825 95.0443L226.892 94.6468Z" fill="white"/>
<path opacity="0.2" d="M229.267 76.8154H185.267C183.057 76.8154 181.267 78.6054 181.267 80.8154V82.8154C181.267 80.6054 183.057 78.8154 185.267 78.8154H229.267C231.477 78.8154 233.267 80.6054 233.267 82.8154V80.8154C233.267 78.6054 231.477 76.8154 229.267 76.8154Z" fill="white"/>
<path d="M315 75H271C267.686 75 265 77.6863 265 81V105C265 108.314 267.686 111 271 111H315C318.314 111 321 108.314 321 105V81C321 77.6863 318.314 75 315 75Z" fill="#141413"/>
<path opacity="0.15" d="M315 75H271C267.686 75 265 77.686 265 81V105C265 108.314 267.686 111 271 111H315C318.314 111 321 108.314 321 105V81C321 77.686 318.314 75 315 75ZM319 105C319 107.206 317.206 109 315 109H271C268.794 109 267 107.206 267 105V81C267 78.794 268.794 77 271 77H315C317.206 77 319 78.794 319 81V105Z" fill="black"/>
<path opacity="0.2" d="M315 77H271C268.79 77 267 78.79 267 81V83C267 80.79 268.79 79 271 79H315C317.21 79 319 80.79 319 83V81C319 78.79 317.21 77 315 77Z" fill="white"/>
<path d="M288.194 84.354H297.814V101.64H288.194V84.354Z" fill="#FF5F00"/>
<path d="M288.804 92.9979C288.804 89.6379 290.362 86.4319 292.988 84.3539C288.224 80.5979 281.29 81.4219 277.534 86.2179C273.808 90.9819 274.632 97.8839 279.428 101.642C283.428 104.788 289.018 104.788 293.018 101.642C290.36 99.5659 288.804 96.3579 288.804 92.9979Z" fill="#EB001B"/>
<path d="M310.794 92.9979C310.794 99.0759 305.876 103.992 299.8 103.992C297.326 103.992 294.944 103.168 293.02 101.64C297.784 97.8839 298.61 90.9819 294.852 86.1859C294.302 85.5139 293.692 84.8719 293.02 84.3539C297.784 80.5979 304.718 81.4219 308.444 86.2179C309.972 88.1419 310.796 90.5239 310.796 92.9979H310.794Z" fill="#F79E1B"/>
<defs>
<clipPath id="clip0_789_3745">
<rect width="24" height="24" fill="white" transform="translate(100.5 29)"/>
</clipPath>
</defs>
</svg>
